<svg xmlns="http://www.w3.org/2000/svg" width="50" height="50" viewBox="0 0 50 50">
  <g id="icon-co2" transform="translate(-2774 383)">
    <rect id="Rectángulo_1975" data-name="Rectángulo 1975" width="50" height="50" transform="translate(2774 -383)" fill="none"/>
    <g id="Grupo_3422" data-name="Grupo 3422" transform="translate(2780.302 -376.227)">
      <path id="Trazado_3667" data-name="Trazado 3667" d="M5.445.733A.6.6,0,0,0,5,1.167a7.818,7.818,0,0,0,1.621,6.8,9.951,9.951,0,0,0-1.144.55A9.576,9.576,0,0,0,.536,16.6a.591.591,0,0,0,.315.537,10.117,10.117,0,0,0,9.651-.113,9.63,9.63,0,0,0,4.628-5.913l1.859,0a1.177,1.177,0,0,0,1.176-1.176V9.353H32.271A2.338,2.338,0,0,1,34.624,11.7V28.16a2.345,2.345,0,0,1-2.353,2.353l-4.706-.006V26.985a1.64,1.64,0,0,0-.543-1.219,2.253,2.253,0,0,0-1.1-.529l-2.208-.556a15.277,15.277,0,0,1-1.9-2.242,10.617,10.617,0,0,0-1.093-1.253,2.021,2.021,0,0,0-1.364-.666l-8.2,0a.986.986,0,0,0-.656.251,3.436,3.436,0,0,0-.439.42c-.291.323-.607.733-.937,1.179-.615.833-1.3,1.781-1.8,2.311L2.165,25.822a2.383,2.383,0,0,0-1.1.538A1.607,1.607,0,0,0,.529,27.57V31.1a1.763,1.763,0,0,0,1.762,1.765H4.072a3.231,3.231,0,0,0,6.435,0H17.3a3.232,3.232,0,0,0,6.438,0h2.041a1.766,1.766,0,0,0,1.689-1.176h4.807A3.525,3.525,0,0,0,35.8,28.16V11.7a3.492,3.492,0,0,0-3.528-3.523H18.164V7.589a1.173,1.173,0,0,0-1.176-1.177c-.61,0-1.24,0-1.843,0a7.987,7.987,0,0,0-2.115-3.539A8.246,8.246,0,0,0,5.445.733ZM10.705,5.6,6.822,1.719a7.174,7.174,0,0,1,3.885.88ZM5.984,2.542,8.215,4.773H6.231A6.579,6.579,0,0,1,5.984,2.542Zm5.9.875c.111.094.223.2.328.3a6.744,6.744,0,0,1,2.031,4.273,10.266,10.266,0,0,0-1.672-.522c-.227-.233-.457-.46-.69-.692ZM9.39,5.949,10.68,7.24c-.134,0-.261,0-.395,0a10.21,10.21,0,0,0-2.443.33A7.4,7.4,0,0,1,6.7,5.949Zm7.6,1.641V9.941H15.364a10,10,0,0,0,.018-2.355ZM10.3,8.414A9.017,9.017,0,0,1,13.32,8.9l-2.4,1.387L6.068,9.539A8.91,8.91,0,0,1,10.3,8.414Zm3.9,1.332A8.417,8.417,0,0,1,9.929,16,8.854,8.854,0,0,1,6.94,17.025c.589-1.368,1.171-2.739,1.764-4.1C10.543,11.864,12.365,10.807,14.2,9.746Zm-9.537.763,4.629.715L1.812,15.543A8.37,8.37,0,0,1,4.666,10.509ZM7,13.9,5.616,17.13a8.927,8.927,0,0,1-3.206-.577ZM11.235,21.7h3.991v2.936H8.906c.4-.506.795-1.055,1.17-1.558.325-.437.63-.832.868-1.1a2.252,2.252,0,0,1,.292-.281Zm5.163,0h2.985c.074,0,.258.081.543.347a9.953,9.953,0,0,1,.963,1.113c.372.48.749,1,1.145,1.477H16.4ZM7.692,25.81H23.379c.76.192,1.55.385,2.308.576a1.16,1.16,0,0,1,.542.246.454.454,0,0,1,.161.354V31.1a.584.584,0,0,1-.59.589H23.626a3.234,3.234,0,0,0-6.222,0l-7.007,0a3.233,3.233,0,0,0-6.219,0H2.292A.585.585,0,0,1,1.7,31.1V27.571a.428.428,0,0,1,.156-.342,1.26,1.26,0,0,1,.569-.261Zm5.183,1.176a.587.587,0,0,0,0,1.175h.586a.587.587,0,1,0,0-1.175ZM7.29,30.512a2.056,2.056,0,1,1-2.057,2.055A2.052,2.052,0,0,1,7.29,30.512Zm13.226,0a2.056,2.056,0,1,1-2.057,2.055A2.055,2.055,0,0,1,20.517,30.512Z" fill="#acacac"/>
    </g>
  </g>
</svg>
