<svg xmlns="http://www.w3.org/2000/svg" width="50" height="50" viewBox="0 0 50 50">
  <g id="icon-max-speed" transform="translate(-2774 383)">
    <rect id="Rectángulo_1975" data-name="Rectángulo 1975" width="50" height="50" transform="translate(2774 -383)" fill="none"/>
    <g id="Grupo_3423" data-name="Grupo 3423" transform="translate(2776.635 -382.935)">
      <circle id="Elipse_300" data-name="Elipse 300" cx="0.917" cy="0.917" r="0.917" transform="translate(21.749 32.924)" fill="#acacac"/>
      <g id="Grupo_3423-2" data-name="Grupo 3423" transform="translate(0.1 12.1)">
        <path id="Trazado_3668" data-name="Trazado 3668" d="M44.591,35.217a.607.607,0,0,1-.6-.6,21.351,21.351,0,0,0-42.7,0,.607.607,0,0,1-.6.6.607.607,0,0,1-.6-.6,22.521,22.521,0,1,1,45.041,0A.569.569,0,0,1,44.591,35.217Z" transform="translate(-0.1 -12.1)" fill="#acacac"/>
      </g>
      <g id="Grupo_3424" data-name="Grupo 3424" transform="translate(22.07 14.531)">
        <path id="Trazado_3669" data-name="Trazado 3669" d="M48.6,21.069a.607.607,0,0,1-.6-.6V18a.6.6,0,1,1,1.193,0v2.477A.641.641,0,0,1,48.6,21.069Z" transform="translate(-48 -17.4)" fill="#acacac"/>
      </g>
      <g id="Grupo_3425" data-name="Grupo 3425" transform="translate(17.185 15.195)">
        <path id="Trazado_3670" data-name="Trazado 3670" d="M38.565,22.4a.551.551,0,0,1-.55-.413l-.642-2.385a.6.6,0,1,1,1.147-.321l.642,2.385a.589.589,0,0,1-.413.734Z" transform="translate(-37.349 -18.849)" fill="#acacac"/>
      </g>
      <g id="Grupo_3426" data-name="Grupo 3426" transform="translate(12.676 17.062)">
        <path id="Trazado_3671" data-name="Trazado 3671" d="M29.344,26.212a.575.575,0,0,1-.5-.275L27.6,23.781a.575.575,0,1,1,1.009-.55l1.238,2.156a.55.55,0,0,1-.229.78A.582.582,0,0,1,29.344,26.212Z" transform="translate(-27.518 -22.918)" fill="#acacac"/>
      </g>
      <g id="Grupo_3427" data-name="Grupo 3427" transform="translate(8.78 20.046)">
        <path id="Trazado_3672" data-name="Trazado 3672" d="M21.353,32.349a.56.56,0,0,1-.413-.183L19.2,30.423a.584.584,0,0,1,.826-.826l1.743,1.743a.581.581,0,0,1,0,.826A.56.56,0,0,1,21.353,32.349Z" transform="translate(-19.025 -29.425)" fill="#acacac"/>
      </g>
      <g id="Grupo_3428" data-name="Grupo 3428" transform="translate(5.77 23.962)">
        <path id="Trazado_3673" data-name="Trazado 3673" d="M15.186,40.365a.652.652,0,0,1-.275-.092l-2.156-1.238a.575.575,0,1,1,.55-1.009l2.156,1.238a.6.6,0,0,1,.229.78A.564.564,0,0,1,15.186,40.365Z" transform="translate(-12.462 -37.962)" fill="#acacac"/>
      </g>
      <g id="Grupo_3429" data-name="Grupo 3429" transform="translate(3.929 28.497)">
        <path id="Trazado_3674" data-name="Trazado 3674" d="M11.408,49.661H11.27l-2.385-.642a.6.6,0,1,1,.321-1.147l2.385.642a.589.589,0,0,1,.413.734A.771.771,0,0,1,11.408,49.661Z" transform="translate(-8.449 -47.849)" fill="#acacac"/>
      </g>
      <g id="Grupo_3430" data-name="Grupo 3430" transform="translate(3.219 33.336)">
        <path id="Trazado_3675" data-name="Trazado 3675" d="M9.973,59.593H7.5a.6.6,0,1,1,0-1.193H9.973a.6.6,0,1,1,0,1.193Z" transform="translate(-6.9 -58.4)" fill="#acacac"/>
      </g>
      <g id="Grupo_3431" data-name="Grupo 3431" transform="translate(38.399 33.336)">
        <path id="Trazado_3676" data-name="Trazado 3676" d="M86.673,59.593H84.2a.6.6,0,0,1,0-1.193h2.477a.6.6,0,1,1,0,1.193Z" transform="translate(-83.6 -58.4)" fill="#acacac"/>
      </g>
      <g id="Grupo_3432" data-name="Grupo 3432" transform="translate(37.871 28.497)">
        <path id="Trazado_3677" data-name="Trazado 3677" d="M83.023,49.661a.551.551,0,0,1-.55-.413.589.589,0,0,1,.413-.734l2.385-.642a.6.6,0,1,1,.321,1.147l-2.431.6A.169.169,0,0,1,83.023,49.661Z" transform="translate(-82.449 -47.849)" fill="#acacac"/>
      </g>
      <g id="Grupo_3433" data-name="Grupo 3433" transform="translate(36.205 23.988)">
        <path id="Trazado_3678" data-name="Trazado 3678" d="M79.406,40.395a.575.575,0,0,1-.5-.275.55.55,0,0,1,.229-.78L81.286,38.1a.575.575,0,1,1,.55,1.009L79.727,40.3A.663.663,0,0,1,79.406,40.395Z" transform="translate(-78.818 -38.018)" fill="#acacac"/>
      </g>
      <g id="Grupo_3434" data-name="Grupo 3434" transform="translate(33.64 20.046)">
        <path id="Trazado_3679" data-name="Trazado 3679" d="M73.81,32.349a.56.56,0,0,1-.413-.183.581.581,0,0,1,0-.826L75.14,29.6a.584.584,0,0,1,.826.826l-1.743,1.743A.56.56,0,0,1,73.81,32.349Z" transform="translate(-73.225 -29.425)" fill="#acacac"/>
      </g>
      <g id="Grupo_3435" data-name="Grupo 3435" transform="translate(30.263 17.036)">
        <path id="Trazado_3680" data-name="Trazado 3680" d="M66.43,26.182a.652.652,0,0,1-.275-.092.6.6,0,0,1-.229-.78l1.238-2.156a.575.575,0,1,1,1.009.55l-1.238,2.156A.535.535,0,0,1,66.43,26.182Z" transform="translate(-65.862 -22.862)" fill="#acacac"/>
      </g>
      <g id="Grupo_3436" data-name="Grupo 3436" transform="translate(26.312 15.195)">
        <path id="Trazado_3681" data-name="Trazado 3681" d="M57.823,22.4h-.138a.589.589,0,0,1-.413-.734l.642-2.385a.6.6,0,1,1,1.147.321l-.642,2.385A.653.653,0,0,1,57.823,22.4Z" transform="translate(-57.249 -18.849)" fill="#acacac"/>
      </g>
      <g id="Grupo_3437" data-name="Grupo 3437" transform="translate(19.226 22.078)">
        <path id="Trazado_3682" data-name="Trazado 3682" d="M45.24,49.194a3.435,3.435,0,0,1-3.44-3.44,4.147,4.147,0,0,1,1.009-2.431l8.715-9.265a.573.573,0,0,1,.78-.092.675.675,0,0,1,.275.78l-3.945,11.7a4.584,4.584,0,0,1-1.193,1.926A3.534,3.534,0,0,1,45.24,49.194ZM50.7,36.535l-7.018,7.522a3.328,3.328,0,0,0-.734,1.7,2.271,2.271,0,0,0,2.293,2.293,1.907,1.907,0,0,0,1.422-.6h0a3.4,3.4,0,0,0,.871-1.422Z" transform="translate(-41.8 -33.853)" fill="#acacac"/>
      </g>
    </g>
  </g>
</svg>
