<svg xmlns="http://www.w3.org/2000/svg" width="50" height="50" viewBox="0 0 50 50">
  <g id="icon-min-trip" transform="translate(-2774 383)">
    <rect id="Rectángulo_1975" data-name="Rectángulo 1975" width="50" height="50" transform="translate(2774 -383)" fill="none"/>
    <g id="Grupo_3467" data-name="Grupo 3467" transform="translate(2768.348 -390.587)">
      <path id="Trazado_3741" data-name="Trazado 3741" d="M48.631,37.2H40.987l-1.279-1.806-.957-1.42A9.781,9.781,0,0,0,32.718,18.88V17.614H33.75a.516.516,0,0,0,.516-.516V14.516A.516.516,0,0,0,33.75,14h-6.2a.516.516,0,0,0-.516.516V17.1a.516.516,0,0,0,.516.516h1.033V18.88a9.774,9.774,0,0,0-7.235,12.675H18.261a.516.516,0,0,0-.5.4L16.578,37.2H10.516a.516.516,0,0,0-.516.516V44.9a.517.517,0,0,0,.353.49l3.981,1.327a4.828,4.828,0,0,0,9.615.138H37.356a4.784,4.784,0,0,0,1.573,3.067,4.308,4.308,0,0,0,.886.643,4.839,4.839,0,0,0,6.951-2.758,4.988,4.988,0,0,0,.185-.952h3.838a.516.516,0,0,0,.516-.516V39.871A2.677,2.677,0,0,0,48.631,37.2Zm1.641,5.034H48.231l-.922-1.844h2.963ZM39.722,37.2H28.292v-4.61h8.281l2.285,3.391ZM25.895,31.555c-.018-.028-.038-.055-.055-.084-.034-.054-.067-.109-.1-.164s-.079-.138-.116-.208-.058-.111-.085-.167c-.035-.072-.068-.145-.1-.218-.024-.056-.049-.113-.071-.17-.03-.076-.057-.152-.084-.229-.02-.057-.04-.114-.058-.171-.025-.079-.046-.159-.067-.239-.015-.057-.031-.114-.044-.171-.019-.084-.035-.17-.05-.255-.01-.054-.021-.108-.03-.163-.014-.1-.024-.192-.033-.288,0-.046-.011-.092-.015-.138-.011-.143-.017-.287-.017-.432a5.794,5.794,0,0,1,.053-.748c0-.038.008-.077.014-.115a5.621,5.621,0,0,1,.15-.689c.012-.043.025-.085.038-.127a5.571,5.571,0,0,1,.249-.664c.012-.027.027-.054.04-.081a5.631,5.631,0,0,1,.346-.627l.018-.03,4.454,3.487a.514.514,0,0,0,.141.077c.015.006.031.007.047.012a.508.508,0,0,0,.108.018c.008,0,.015,0,.022,0s.015,0,.023-.005a.508.508,0,0,0,.2-.047.516.516,0,0,0,.29-.464V22.8l.034,0c.073.007.143.02.215.03.112.015.224.03.334.051.076.015.149.035.223.053.1.025.207.049.308.079.076.023.149.05.223.076.1.033.193.067.287.105.074.03.146.064.218.1.091.042.181.084.269.13.071.037.14.077.209.117.085.049.169.1.251.153s.133.09.2.136.158.114.234.175.124.1.185.154.145.129.215.2.115.112.171.17.132.142.2.215.1.121.154.184.118.155.175.234.093.13.137.2c.054.082.1.167.153.252.04.069.081.137.118.208.047.088.089.18.131.271.033.071.067.142.1.215.039.1.073.193.107.291.025.073.053.144.075.218.032.1.056.211.082.317.017.071.037.141.052.213.024.12.04.242.056.364.008.062.02.122.027.184.018.186.029.374.029.564,0,.145-.006.289-.017.432,0,.046-.01.092-.015.138-.01.1-.019.193-.033.288-.008.055-.02.109-.03.163-.015.085-.031.171-.05.255-.013.057-.029.114-.044.171-.021.08-.042.16-.067.239-.018.058-.038.114-.058.171-.027.077-.054.153-.084.229-.023.057-.047.114-.071.17-.032.073-.065.146-.1.218q-.041.084-.085.167-.055.105-.116.208c-.032.055-.065.11-.1.164-.018.028-.037.056-.055.084Zm.71-7.082c.068-.073.141-.141.209-.2s.165-.146.249-.215.159-.126.24-.185c.1-.072.2-.145.3-.21.168-.106.346-.2.524-.293a4.645,4.645,0,0,1,.572-.245,5.007,5.007,0,0,1,.534-.165c.065-.017.135-.035.2-.048l.062-.014c.035-.007.074-.015.053-.012.072-.013.143-.027.23-.038.057-.009.115-.016.175-.024l.084-.009.09-.009V27.4l-3.617-2.832c.027-.028.05-.055.08-.085Zm1.466-9.44h5.163v1.549H28.071Zm3.614,2.582V18.7c-.032,0-.063,0-.1-.005-.29-.028-.581-.045-.873-.047-.022,0-.043,0-.064,0s-.038,0-.057,0c-.3,0-.59.019-.883.048-.031,0-.062,0-.093.005V17.614Zm-9.81,10.843a8.738,8.738,0,0,1,7.317-8.651,8.556,8.556,0,0,1,2.194-.094q.367.032.73.095A8.77,8.77,0,0,1,38.13,33.049l-.854-1.266a.516.516,0,0,0-.428-.228H36.61c.005-.01.009-.021.014-.031a6.608,6.608,0,0,0,.285-.637c.02-.051.037-.1.056-.153.073-.2.139-.411.192-.621.006-.023.013-.045.019-.068a6.688,6.688,0,0,0,.126-.7c.007-.056.014-.112.02-.168a6.833,6.833,0,0,0,.043-.723,6.719,6.719,0,0,0-6.712-6.712c-.117,0-.228.005-.32.01a1.857,1.857,0,0,0-.261.017c-.147.011-.294.028-.427.049-.092.011-.184.028-.278.046-.017,0-.048.01-.065.015-.032.006-.066.013-.049.011-.1.018-.191.041-.276.064a5.9,5.9,0,0,0-.629.195,5.655,5.655,0,0,0-.687.3c-.2.1-.408.216-.6.339-.121.077-.237.16-.355.244-.1.074-.2.147-.293.226s-.184.157-.295.255c-.089.083-.177.167-.249.244s-.166.171-.244.261-.166.194-.252.3a6.647,6.647,0,0,0-1.426,4.139,6.829,6.829,0,0,0,.043.723c.006.056.012.112.02.168a6.689,6.689,0,0,0,.126.7c.006.023.013.045.019.068.053.211.118.417.192.621.018.051.036.1.056.153a6.609,6.609,0,0,0,.285.637c.005.01.009.021.014.031H22.44A8.64,8.64,0,0,1,21.875,28.457Zm-3.2,4.13H27.26V37.2H17.636Zm.472,17.555a3.8,3.8,0,1,1,3.8-3.8A3.8,3.8,0,0,1,19.146,50.142ZM45.781,47.5a3.8,3.8,0,0,1-3.623,2.642,3.735,3.735,0,0,1-1.844-.475,3.349,3.349,0,0,1-.691-.5,3.793,3.793,0,0,1,2.534-6.619H42.2a1.384,1.384,0,0,1,.145.007,3.789,3.789,0,0,1,3.614,3.792A3.918,3.918,0,0,1,45.781,47.5Zm1.182-1.673c-.013-.121-.033-.239-.054-.357,0-.024-.006-.049-.011-.074-.029-.147-.065-.292-.108-.434-.013-.045-.031-.089-.046-.133-.032-.1-.063-.193-.1-.286-.021-.054-.047-.1-.07-.158-.036-.082-.072-.163-.112-.243-.028-.055-.06-.108-.09-.162-.041-.074-.082-.147-.127-.218-.034-.054-.07-.105-.106-.157-.047-.068-.093-.135-.143-.2s-.08-.1-.121-.15-.1-.124-.159-.183-.089-.094-.134-.139-.114-.113-.174-.167-.1-.086-.146-.128-.124-.1-.189-.15-.1-.078-.157-.115-.135-.09-.2-.133-.109-.068-.165-.1c-.072-.041-.145-.078-.219-.115-.057-.029-.113-.058-.171-.084-.077-.035-.156-.066-.235-.1-.058-.023-.115-.046-.174-.067-.084-.029-.171-.053-.257-.077-.057-.016-.112-.034-.17-.048-.1-.023-.195-.04-.293-.058-.05-.009-.1-.021-.149-.028-.15-.021-.3-.037-.455-.044a2.451,2.451,0,0,0-.267-.011c-.161,0-.321.009-.478.024-.052.005-.1.015-.155.022-.1.014-.208.027-.309.047-.061.012-.12.029-.181.043-.09.022-.18.043-.268.069-.063.019-.124.042-.186.063-.083.029-.165.057-.245.09-.062.026-.123.054-.184.082-.077.035-.153.071-.228.11s-.119.066-.178.1-.142.084-.212.129-.114.077-.17.116-.132.1-.2.147-.107.086-.159.131-.122.108-.181.164-.1.1-.146.144-.111.12-.165.182-.089.1-.132.156-.1.131-.148.2-.079.109-.116.166-.089.143-.131.216c-.034.057-.068.114-.1.173-.041.077-.077.157-.114.237-.027.058-.056.115-.08.174-.036.088-.067.178-.1.269-.019.054-.04.107-.057.162-.035.115-.064.233-.091.352-.007.032-.018.064-.024.1q-.045.222-.07.451H23.95q-.024-.229-.07-.451c-.007-.033-.017-.064-.024-.1-.027-.119-.055-.237-.091-.352-.017-.055-.038-.108-.057-.162-.031-.09-.062-.181-.1-.269-.024-.059-.053-.115-.08-.173-.037-.08-.073-.16-.115-.238-.031-.059-.066-.115-.1-.172-.043-.073-.085-.146-.132-.216s-.077-.111-.116-.166-.1-.134-.148-.2-.087-.1-.132-.156-.108-.123-.165-.182-.1-.1-.146-.144-.119-.111-.181-.164-.1-.089-.159-.131-.13-.1-.2-.147-.112-.079-.17-.116-.14-.087-.212-.129-.118-.068-.178-.1-.151-.075-.228-.11c-.061-.028-.121-.057-.184-.082-.081-.033-.163-.061-.246-.09-.062-.021-.123-.044-.186-.063-.088-.027-.178-.048-.268-.069-.06-.014-.12-.031-.181-.043-.1-.02-.205-.034-.309-.047-.052-.007-.1-.017-.155-.022-.157-.016-.317-.024-.478-.024s-.317.009-.473.024c-.052.005-.1.015-.153.021-.1.013-.206.027-.307.047-.06.012-.118.027-.177.041-.09.021-.18.043-.268.069-.061.018-.121.039-.181.06-.084.029-.167.058-.248.091-.06.024-.118.05-.177.077-.079.036-.156.073-.233.112q-.086.045-.169.092c-.075.043-.148.087-.22.134-.053.034-.107.069-.159.105-.071.05-.14.1-.208.156-.049.038-.1.076-.145.116-.068.058-.133.119-.2.18-.043.041-.087.08-.128.122-.068.069-.132.142-.2.216-.033.038-.069.075-.1.114-.082.1-.158.2-.232.31-.011.016-.024.031-.035.047q-.125.185-.232.382c-.021.039-.039.079-.059.119-.048.094-.1.188-.137.285-.023.052-.041.106-.062.159-.034.087-.068.175-.1.265-.019.059-.035.119-.052.178-.025.087-.048.175-.068.264-.014.063-.025.127-.037.19s-.022.1-.03.155l-3.333-1.111v-6.3h37.6a1.638,1.638,0,0,1,1.55,1.125H46.474a.516.516,0,0,0-.462.747l1.438,2.877a.516.516,0,0,0,.462.285h2.36v2.563H46.963Z" fill="#acacac"/>
      <path id="Trazado_3742" data-name="Trazado 3742" d="M51,63.107H48.123a.516.516,0,0,0,0,1.033H51a.516.516,0,1,0,0-1.033Z" transform="translate(-18.19 -23.753)" fill="#acacac" stroke="#acacac" stroke-width="0.5"/>
    </g>
  </g>
</svg>
