<svg xmlns="http://www.w3.org/2000/svg" width="50" height="50" viewBox="0 0 50 50">
  <g id="icon-trip-time" transform="translate(-2774 383)">
    <rect id="Rectángulo_1975" data-name="Rectángulo 1975" width="50" height="50" transform="translate(2774 -383)" fill="none"/>
    <g id="Grupo_3465" data-name="Grupo 3465" transform="translate(2766.672 -401.815)">
      <path id="Trazado_3736" data-name="Trazado 3736" d="M50.191,39.349a4.471,4.471,0,0,0-4.466,4.466c0,1.783,2.2,5.082,3.36,6.7H37.849a3.9,3.9,0,0,0,1.134-2.233h2.836a.558.558,0,0,0,.558-.558V42.7a2.235,2.235,0,0,0-2.233-2.233H34.292L31.3,36.236A.558.558,0,0,0,30.845,36H16.635a.558.558,0,0,0-.543.43l-.951,4.036H10.558a.558.558,0,0,0-.558.558v5.582a.558.558,0,0,0,.382.53l2.99,1a3.915,3.915,0,0,0,3.031,3.4.542.542,0,0,0,.3.1H50.191a.55.55,0,0,0,.233-.054.535.535,0,0,0,.057-.038.549.549,0,0,0,.128-.105c.007-.008.018-.012.025-.021.412-.537,4.022-5.315,4.022-7.6A4.471,4.471,0,0,0,50.191,39.349ZM41.26,44.373H39.93l-.558-1.116H41.26ZM24.513,37.116h6.043l2.369,3.349H24.513Zm-7.437,0H23.4v3.349h-7.11Zm-2.812,8.1c-.028.033-.053.068-.08.1-.047.06-.093.119-.136.182-.027.039-.052.078-.077.118-.039.061-.077.122-.113.185q-.036.064-.07.129c-.033.063-.064.128-.093.193-.02.045-.04.089-.059.135-.028.068-.052.137-.076.207-.015.045-.032.09-.046.135-.023.077-.042.156-.061.235-.009.04-.021.079-.029.12,0,.006,0,.011,0,.017L11.116,46.2V41.582H40.143a1.113,1.113,0,0,1,.961.558H38.469a.558.558,0,0,0-.5.808l1.116,2.233a.558.558,0,0,0,.5.309H41.26v1.675H38.987c-.006-.043-.017-.085-.024-.127s-.019-.105-.03-.157c-.016-.072-.035-.142-.055-.212-.014-.049-.026-.1-.042-.145-.024-.074-.052-.145-.08-.217-.016-.042-.031-.084-.048-.125-.036-.083-.076-.164-.118-.244-.014-.027-.026-.056-.041-.083q-.087-.16-.189-.31c-.012-.018-.026-.035-.039-.052-.056-.081-.115-.16-.177-.236-.026-.032-.055-.062-.082-.093-.052-.059-.1-.119-.159-.175-.033-.033-.068-.065-.1-.1-.053-.05-.107-.1-.163-.148-.038-.032-.077-.062-.115-.092-.056-.044-.112-.087-.17-.127-.042-.029-.084-.057-.127-.085-.059-.038-.118-.074-.179-.109-.045-.026-.09-.05-.136-.074-.062-.032-.125-.062-.189-.091-.047-.021-.094-.042-.142-.062-.066-.027-.134-.051-.2-.074-.048-.016-.1-.034-.145-.048-.072-.021-.145-.039-.218-.056-.047-.011-.094-.024-.142-.033-.082-.016-.166-.027-.249-.038-.041-.005-.081-.013-.123-.017-.126-.012-.253-.019-.383-.019s-.257.007-.383.019c-.042,0-.082.012-.123.017-.084.011-.167.022-.249.038-.048.009-.094.022-.142.033-.073.017-.147.035-.219.056-.049.015-.1.032-.145.048-.068.023-.136.047-.2.074-.048.019-.1.041-.142.062-.064.029-.127.059-.189.091-.046.024-.091.049-.136.074-.061.035-.12.071-.179.109-.043.028-.085.055-.127.084-.058.041-.115.084-.171.128-.039.03-.078.06-.115.092-.056.047-.109.1-.163.148-.034.032-.069.063-.1.1-.055.056-.107.115-.159.175-.027.031-.056.061-.082.093-.063.077-.122.157-.179.239-.012.017-.025.033-.036.05q-.1.15-.189.31c-.015.027-.027.056-.041.083-.041.08-.082.161-.118.244-.018.041-.032.083-.048.125-.028.072-.056.143-.08.217-.015.048-.028.1-.042.145-.02.07-.039.141-.055.212-.011.052-.02.1-.03.156s-.018.085-.024.128H21.124c-.006-.043-.017-.085-.024-.127s-.019-.105-.03-.157c-.016-.072-.035-.142-.055-.212-.014-.049-.026-.1-.042-.145-.024-.074-.052-.145-.08-.217-.016-.042-.031-.084-.048-.125-.036-.083-.076-.164-.118-.244-.014-.027-.026-.056-.041-.083q-.087-.16-.189-.31c-.012-.018-.026-.035-.039-.052-.056-.081-.115-.16-.177-.236-.026-.032-.055-.062-.082-.093-.052-.059-.1-.119-.159-.175-.033-.033-.068-.065-.1-.1-.053-.05-.107-.1-.163-.148-.038-.032-.077-.062-.115-.092-.056-.044-.112-.087-.17-.127-.042-.029-.084-.057-.127-.085q-.088-.057-.179-.109c-.045-.026-.09-.05-.136-.074-.062-.032-.125-.062-.189-.091-.047-.021-.094-.042-.142-.062-.066-.027-.134-.051-.2-.074-.048-.016-.1-.034-.145-.048-.072-.021-.145-.039-.218-.056-.047-.011-.094-.024-.142-.033-.082-.016-.166-.027-.249-.038-.041-.005-.081-.013-.123-.017-.126-.012-.253-.019-.383-.019s-.253.007-.377.019c-.041,0-.081.011-.121.016-.083.011-.165.022-.247.038-.047.009-.092.021-.138.031-.074.017-.147.035-.219.057-.047.014-.093.029-.139.045-.069.023-.138.048-.206.075-.045.018-.09.037-.134.056-.067.03-.133.062-.2.1-.041.021-.083.042-.123.065-.068.038-.134.079-.2.122-.034.022-.07.043-.1.066-.079.054-.155.112-.23.172-.018.014-.036.027-.054.041q-.137.114-.264.24c-.021.021-.04.044-.061.065C14.381,45.082,14.321,45.147,14.264,45.214Zm2.992,5.3a2.791,2.791,0,1,1,2.791-2.791A2.794,2.794,0,0,1,17.257,50.513Zm2.729,0a3.9,3.9,0,0,0,1.134-2.233H31.257a3.9,3.9,0,0,0,1.134,2.233Zm15.133,0a2.791,2.791,0,1,1,2.791-2.791A2.794,2.794,0,0,1,35.119,50.513Zm15.072-.376c-1.227-1.688-3.349-4.9-3.349-6.322a3.349,3.349,0,0,1,6.7,0C53.54,45.236,51.418,48.449,50.191,50.137Z" fill="#acacac"/>
      <path id="Trazado_3737" data-name="Trazado 3737" d="M80.233,46a2.233,2.233,0,1,0,2.233,2.233A2.235,2.235,0,0,0,80.233,46Zm0,3.349a1.116,1.116,0,1,1,1.116-1.116A1.118,1.118,0,0,1,80.233,49.349Z" transform="translate(-30.042 -4.418)" fill="#acacac"/>
      <path id="Trazado_3738" data-name="Trazado 3738" d="M37.558,48.116h2.233a.558.558,0,1,0,0-1.116H37.558a.558.558,0,1,0,0,1.116Z" transform="translate(-11.928 -4.86)" fill="#acacac"/>
    </g>
  </g>
</svg>
