<svg xmlns="http://www.w3.org/2000/svg" xmlns:xlink="http://www.w3.org/1999/xlink" width="208.661" height="208.093" viewBox="0 0 208.661 208.093"><defs><style>.a{fill:#f4f7fa;}.b,.c{fill:url(#a);}.c,.e,.m{opacity:0.3;mix-blend-mode:multiply;isolation:isolate;}.d{fill:url(#c);}.e{fill:url(#d);}.f{fill:url(#e);}.g{fill:url(#f);}.h{fill:url(#g);}.i{fill:url(#h);}.j{fill:url(#i);}.k{fill:url(#j);}.l,.m{fill:url(#k);}.n{fill:url(#n);}.o{fill:url(#o);}.p{fill:url(#s);}.q{fill:url(#t);}.r{fill:#b2b8c1;}.s{fill:#fff;}</style><linearGradient id="a" x1="0.498" y1="0.696" x2="0.346" y2="0.31" gradientUnits="objectBoundingBox"><stop offset="0" stop-color="#ff9085"/><stop offset="1" stop-color="#fb6fbb"/></linearGradient><linearGradient id="c" x1="0.466" y1="0.617" x2="0.761" y2="1.183" gradientUnits="objectBoundingBox"><stop offset="0" stop-color="#ffc444"/><stop offset="0.996" stop-color="#f36f56"/></linearGradient><linearGradient id="d" x1="0.465" y1="0.617" x2="0.761" y2="1.183" xlink:href="#c"/><linearGradient id="e" x1="0.008" y1="-0.546" x2="0.967" y2="1.72" gradientUnits="objectBoundingBox"><stop offset="0" stop-color="#063e96"/><stop offset="0.996" stop-color="#002060"/></linearGradient><linearGradient id="f" x1="0.229" y1="0.09" x2="1.023" y2="1.844" xlink:href="#c"/><linearGradient id="g" x1="0.489" y1="-0.641" x2="0.501" y2="0.635" gradientUnits="objectBoundingBox"><stop offset="0" stop-color="#002060"/><stop offset="1" stop-color="#235bb5"/></linearGradient><linearGradient id="h" x1="0" y1="0.5" x2="1" y2="0.5" xlink:href="#g"/><linearGradient id="i" x1="0.483" y1="1.389" x2="0.313" y2="12.431" xlink:href="#c"/><linearGradient id="j" x1="0.643" y1="-1.922" x2="0.265" y2="4.528" xlink:href="#c"/><linearGradient id="k" y1="0.5" x2="1" y2="0.5" gradientUnits="objectBoundingBox"><stop offset="0.004" stop-color="#3dcef4"/><stop offset="1" stop-color="#00b0f0"/></linearGradient><linearGradient id="n" x1="0" y1="0.5" x2="1" y2="0.5" xlink:href="#c"/><linearGradient id="o" x1="1.078" y1="1.488" x2="-0.729" y2="-2.552" xlink:href="#c"/><linearGradient id="s" x1="0.06" y1="3.369" x2="0.475" y2="0.701" gradientUnits="objectBoundingBox"><stop offset="0.494" stop-color="#ebeff2"/><stop offset="1" stop-color="#fff"/></linearGradient><linearGradient id="t" x1="0.064" y1="4.057" x2="0.546" y2="-0.103" xlink:href="#s"/></defs><g transform="translate(-1344.953 -205.714)"><path class="a" d="M1395.834,217.807c-7.124,9.973.934,26.349-9.559,33.8-10.215,7.249-22.542-4.939-32.162,1.292-14.271,9.243-12.136,52.249,8.3,79.171,6.147,8.1,11.321,11.276,13.531,20.382,4.747,19.554-12.778,30.972-9.568,40.652,7.228,21.8,121.719,41.227,168.421-23.559,21.812-30.257,25.49-74.242,6.641-107.876C1507.381,200.89,1411.82,195.429,1395.834,217.807Z" transform="translate(0)"/><g transform="translate(1363.776 215.331)"><path class="b" d="M1551.171,419.394c-7.652.3-65.515,1.611-103.947-43.929-29.177-34.572-31.316-77.376-26.68-101.533,1.372-7.148,5.618-29.273,15.187-30.508a9.689,9.689,0,0,1,8.842,4.38c5.179,8.437-8.734,22.652-3.99,27.8a5.229,5.229,0,0,0,5.675,1.094c4.516-2.236-.34-12.645,4.8-21.526,3.83-6.622,12.454-11.078,15.835-8.939,4.648,2.941-1.552,17.763-4.6,32.18,0,0-7.75,36.685,7.917,74.832C1488.743,398.371,1539.288,415.651,1551.171,419.394Z" transform="translate(-1418.654 -243.367)"/><path class="c" d="M1491.786,401.62c-7.618-8.212-10.652-20.192-29.115-39.842-19.393-20.639-26.05-18.071-29.435-28.257-8.543-25.708,31.7-48.589,25.349-80.033a35.527,35.527,0,0,0-1.359-4.88,21.189,21.189,0,0,0-6.17,6.562c-5.137,8.881-.28,19.291-4.8,21.526a5.228,5.228,0,0,1-5.675-1.094c-4.744-5.148,9.169-19.363,3.99-27.8a9.69,9.69,0,0,0-8.842-4.38c-9.569,1.235-13.815,23.36-15.187,30.508-4.636,24.157-2.5,66.962,26.68,101.533,38.433,45.54,96.3,44.229,103.947,43.929-2.81-.885-7.784-2.528-13.983-5.116C1512.211,415.652,1499.08,409.484,1491.786,401.62Z" transform="translate(-1418.654 -243.367)"/></g><g transform="translate(1422.46 258.798)"><path class="d" d="M1728.645,542.289c1.871-3.271-19.173-11.834-33.713-34.99-5.535-8.815-17.41-31.343-17.39-59.5.009-11.752,2.091-26.269-2.531-27.847-1.848-.631-5.008.737-6.385,2.809-1.213,1.826-.44,3.293-1.488,7.582-.113.465-1.223,5.006-2.088,4.933-1.1-.093.236-7.49-3.576-15.069-.883-1.755-3.442-6.857-5.619-6.64-4.822.481-9.873,25.771-6.129,49.037,5.172,32.145,26.914,59.06,52.1,72.278C1713.522,541.019,1727.182,544.845,1728.645,542.289Z" transform="translate(-1648.426 -413.56)"/><path class="e" d="M1686.372,509.447c-17.337-18.478-30.175-32.532-28.094-48.526,1.182-9.089,6.125-10.677,10.216-20.432a46.748,46.748,0,0,0,3.409-20.251,7.16,7.16,0,0,0-3.276,2.522c-1.213,1.826-.44,3.293-1.488,7.582-.113.465-1.223,5.006-2.088,4.933-1.1-.093.236-7.49-3.576-15.069-.883-1.755-3.442-6.857-5.619-6.64-4.822.481-9.873,25.771-6.129,49.037,5.172,32.145,26.914,59.06,52.1,72.278,11.557,6.065,25.033,9.873,26.759,7.493a60.758,60.758,0,0,1-10.546-4.323C1708.516,533.049,1701.135,525.181,1686.372,509.447Z" transform="translate(-1648.426 -413.56)"/></g><g transform="translate(1390.073 215.015)"><path class="f" d="M1800.109,294.087c-3.453.82-8.232,1.955-9.263.239-1.085-1.8,2.619-5.694,1.828-6.408-.628-.566-2.771,2.052-5.548,1.6-1.5-.243-3.258-1.4-3.49-2.842-.348-2.176,3.019-3.361,2.682-5.746a3.1,3.1,0,0,0-2.177-2.526c-2.339-.433-3.356,4.161-7.109,4.935a7.218,7.218,0,0,1-6.623-2.488c-2.443-3.025-.38-6.854-2.3-8.072-1.553-.984-3.479,1.149-6.815,1.925-5.186,1.205-11.391-1.423-14.814-5.394a17.082,17.082,0,0,1-1.532-19.155c7.366-11.665,34.328-9.89,41.119.638,2.158,3.345,5.236,12.157,6.641,19.921.4,2.194.791,5.029,3.065,6.9,2.922,2.4,5.747.572,9.577,2.809,3.151,1.84,6.015,5.867,5.108,8.811C1809.656,291.82,1806.24,292.631,1800.109,294.087Z" transform="translate(-1686.237 -242.131)"/><path class="g" d="M1788.277,497.517c.109.656-9.507,11.59-11.084,16.85l18.4,5.581s11.389-8.367,15.014-8.366Z" transform="translate(-1711.918 -432.292)"/><path class="h" d="M1809.088,491.357c-.321.009-3.815,5.549-4.07,6.953,0,0,15.187,7.68,18.192,12.4l10.869-4.443S1815.967,491.172,1809.088,491.357Z" transform="translate(-1732.637 -427.704)"/><path class="i" d="M1771.435,548.739s2.747-6.779,4.449-7.889,11.743,2.463,18.024,9.552l-3.007,2.489Z" transform="translate(-1707.631 -464.409)"/><path class="j" d="M1652.931,356.631s-4.5-1.316-7.179-.658-1.7,4-1.23,5.01,7.017-1.205,7.017-1.205Z" transform="translate(-1612.709 -326.761)"/><path class="k" d="M2072.22,474.149a22.252,22.252,0,0,1,.024-4.948c.207-1.736.514-2.477,1.078-2.695a1.376,1.376,0,0,1,1.024.091c1.52.673,1.924,3.314,1.786,4.995a7.638,7.638,0,0,1-1.786,4.207Z" transform="translate(-1931.502 -409.151)"/><path class="l" d="M1669.974,352.587l-2.416,6.207a27.083,27.083,0,0,0,12.76,5.286c5.86.707,7.574-1.282,12.168.267,5,1.686,4.645,4.607,11.456,8.417,5.382,3.01,8.305,2.7,8.57,4.493.346,2.346-4.466,4.036-11,11.6-2.461,2.85-2.824,3.823-2.554,4.6.859,2.458,7.065-.065,13.536,2.682,8.675,3.682,10.583,13.761,14.813,12.9.862-.176,1.07-.653,3.959-3.959,2.66-3.044,4.941-5.452,6.517-7.073a33.567,33.567,0,0,1,7.748,4.948c6.05,5.176,6.658,9.553,12.425,12.213,1.855.855,4.782,2.205,7.45,1.069,1.63-.694,3.221-2.342,5.968-12.64,1.295-4.853,2.136-8.967,2.677-11.936l-4.091-3.054a24.664,24.664,0,0,0-5.236,8.684c-1.463,4.282-.946,6.893-2.426,7.534-1.835.794-4.319-2.488-10.2-8.1-8.03-7.662-9.569-7.432-14.7-13.226-4.738-5.35-4.573-6.841-7.662-10.471-1.8-2.121-7.361-8.076-33.606-14.988A257.246,257.246,0,0,0,1669.974,352.587Z" transform="translate(-1630.284 -324.377)"/><path class="m" d="M1711.94,396.966c-.716-4.995,12.538-9.051,11.668-13.282-.461-2.241-4.417-2.268-10.982-4.725-11.99-4.487-10.822-8.9-19.538-11.238-9.416-2.527-13.985,1.762-20.815-2.426a16.528,16.528,0,0,1-3.3-2.672l-1.418,3.644a27.081,27.081,0,0,0,12.76,5.286c5.86.707,7.574-1.282,12.168.267,5,1.686,4.645,4.607,11.456,8.417,5.382,3.01,8.305,2.7,8.57,4.493.346,2.346-4.466,4.036-11,11.6-2.461,2.851-2.824,3.823-2.554,4.6.859,2.458,7.065-.065,13.536,2.682,8.675,3.682,10.583,13.761,14.813,12.9a2.012,2.012,0,0,0,.222-.058,17.447,17.447,0,0,0-3.286-10.286C1719.687,400.22,1712.459,400.59,1711.94,396.966Z" transform="translate(-1630.284 -331.849)"/><path class="m" d="M1965.578,541.34c-3.5-.134-4.458-4.683-12.259-11.238-3.11-2.613-9.794-8.28-13.049-6.255a3.982,3.982,0,0,0-1.6,2.375c.353-.369.683-.71.986-1.022a33.559,33.559,0,0,1,7.748,4.948c6.05,5.176,6.658,9.553,12.425,12.213,1.855.855,4.782,2.205,7.45,1.069,1.126-.48,2.234-1.416,3.716-5.344C1968.781,540.746,1966.968,541.393,1965.578,541.34Z" transform="translate(-1832.157 -451.578)"/><path class="n" d="M1929.678,439.021s-6.651,5.029-11.145,1.006c0,0-1.562,7.382,8.062,12.362,0,0-3.6-3.336,4.29-8.326Z" transform="translate(-1817.091 -388.735)"/><path class="o" d="M1963.155,420.295s-.18,7.225-3.035,10.772a1.561,1.561,0,0,1-1.681.518,7.191,7.191,0,0,1-5.113-5.884s-1.534-2.12-1.315-3.048,1.865-.59,2.394.579,1.247-.9,1.013-1.295S1957.3,417.523,1963.155,420.295Z" transform="translate(-1842.072 -374.071)"/><path class="l" d="M1607.494,569.087c-13.092,5.04-14.764,9.346-15.069,10.982-.056.3-.354,2.065-.614,4.341-.5,4.4-.244,5.279-.766,6.793-.9,2.614-2.84,3.373-5.181,5.4-6.766,5.846-4.695,11.7-10.827,15.963-2.89,2.01-5.331,2.087-7.259,2.623-6.024,1.675-13.265,9.56-18.261,37.288l3.7,4.214c6.4-14.364,14.292-22.949,20.187-28.084,11.978-10.435,21.411-11.585,32.937-23.379a72.677,72.677,0,0,0,14.558-21.837Z" transform="translate(-1542.391 -485.583)"/><path class="m" d="M1638.765,589.388c-9.157,1.308-12.343,4.351-13.545,6.947-1.861,4.018,1.033,6.952.255,15.069-.153,1.594-.88,9.184-5.108,14.558-6.266,7.964-15.6,5.186-23.241,9.578-5.137,2.952-10.44,9.683-12.139,26a74.569,74.569,0,0,1,14.831-17.816c11.978-10.435,21.411-11.585,32.937-23.379a72.682,72.682,0,0,0,14.558-21.837Z" transform="translate(-1568.802 -500.699)"/><path class="l" d="M1744.733,569.75c-4.016,2.065-7.885,6.756-7.54,11.8.318,4.646,4.123,8.414,7.75,10.131,6.351,3.007,10.441-1.086,23.474-1.151,7.571-.037,14.445,1.3,14.559,2.855.109,1.477-6.037,1.36-9.705,6.257-1.39,1.855-1.806,3.605-2.809,10.727-.539,3.829-1.171,8.666-1.788,14.3l2.4,2.679c7.326-8.252,18.305-21.365,26.24-34.612,1.176-1.962,2.714-4.646,1.922-7.427-1.539-5.4-10.182-5.224-27.427-10.153C1755.16,570.406,1750.727,566.668,1744.733,569.75Z" transform="translate(-1682.119 -485.24)"/><path class="p" d="M1781.041,600.6l5.236-2.888c-16.48-5.924-34.993-7.925-46.216-8.6a12.165,12.165,0,0,0-2.573,5.835C1759.235,594.578,1781.041,600.6,1781.041,600.6Z" transform="translate(-1682.353 -500.495)"/><path class="q" d="M1777.678,628.537l2.362-1.149c-17.065-4.783-34.767-4.2-41.965-3.654a12.7,12.7,0,0,0,4.774,7.008C1756.76,626.326,1777.678,628.537,1777.678,628.537Z" transform="translate(-1682.79 -526.005)"/><g transform="translate(0 163.572)"><path class="i" d="M1530.135,882.942a8.478,8.478,0,0,1-2.67,1.156c-.75-.029-3.43-.518-3.1,2.042s2.461,13.394,3.58,16.021,1.892,3.384,4.686,2.932c1.169-.189-.748-3.069-.45-4.651s3.647-11.463,3.647-11.463-2.834-3.2-3.091-4.213S1531.907,881.786,1530.135,882.942Z" transform="translate(-1523.644 -882.589)"/><path class="r" d="M1526.973,900.989v-8.336a8.8,8.8,0,0,0-.919-3.915l-.562-1.133c-.019,0-.039,0-.056,0-.75-.029-4.484-1.509-3.718,2.321.506,2.532,2.84,13.8,3.959,16.431s2.516,2.908,5.31,2.456c.5-.08.055-.858-.156-1.6l-1.458-1.185A6.494,6.494,0,0,1,1526.973,900.989Z" transform="translate(-1521.615 -886.099)"/></g><g transform="translate(78.511 136.468)"><path class="i" d="M1837.007,776.793a7.954,7.954,0,0,1-2.5,1.084c-.7-.028-3.217-.486-2.9,1.915s2.308,12.558,3.356,15.022,1.774,3.173,4.394,2.749c1.1-.177-.7-2.877-.422-4.361s3.419-10.747,3.419-10.747-2.658-3-2.9-3.95S1838.668,775.709,1837.007,776.793Z" transform="translate(-1830.921 -776.462)"/><path class="s" d="M1834.042,793.713V785.9a8.252,8.252,0,0,0-.861-3.671l-.527-1.062c-.017,0-.036,0-.052,0-.7-.028-4.2-1.415-3.486,2.176.475,2.374,2.663,12.942,3.712,15.405s2.359,2.726,4.979,2.3c.465-.075.051-.8-.146-1.5l-1.368-1.111A6.089,6.089,0,0,1,1834.042,793.713Z" transform="translate(-1829.018 -779.753)"/></g></g></g></svg>