<svg id="Layer_1" data-name="Layer 1" xmlns="http://www.w3.org/2000/svg" width="20" height="21" viewBox="0 0 20 21"><defs><style>.cls-1{isolation:isolate;}.cls-2{fill:#282f39;}</style></defs><g class="cls-1"><g class="cls-1"><path class="cls-2" d="M5.293,14.707A6.4223,6.4223,0,0,1,3.32,10,6.4253,6.4253,0,0,1,5.293,5.293,6.4262,6.4262,0,0,1,10,3.32,6.4292,6.4292,0,0,1,14.707,5.293,6.4292,6.4292,0,0,1,16.68,10a6.4262,6.4262,0,0,1-1.9727,4.707A6.4253,6.4253,0,0,1,10,16.68,6.4223,6.4223,0,0,1,5.293,14.707Z"/></g></g></svg>