<svg xmlns="http://www.w3.org/2000/svg" xmlns:xlink="http://www.w3.org/1999/xlink" width="203.598" height="202.753" viewBox="0 0 203.598 202.753"><defs><style>.a{fill:url(#a);}.b{fill:url(#b);}.c{fill:#f4f7fa;}.d{clip-path:url(#d);}.e{mix-blend-mode:soft-light;}.e,.k{isolation:isolate;}.f{fill:#fcfdfe;}.g{clip-path:url(#f);}.h{fill:url(#g);}.i{fill:url(#h);}.j{fill:url(#i);}.k{opacity:0.2;mix-blend-mode:multiply;}.l{fill:url(#j);}.m{fill:url(#k);}.n{fill:url(#l);}.o{fill:url(#m);}.p{fill:url(#n);}.q{fill:url(#o);}.r{fill:#fff;}.s{fill:url(#p);}.t{fill:url(#q);}.u{fill:#d8dee8;}.v{fill:url(#r);}.w{fill:url(#s);}.x{fill:url(#t);}.y{fill:url(#u);}.z{fill:url(#v);}.aa{fill:url(#w);}.ab{fill:url(#x);}.ac{fill:url(#y);}.ad{fill:url(#z);}</style><linearGradient id="a" x1="0.373" y1="0.122" x2="0.636" y2="1.022" gradientUnits="objectBoundingBox"><stop offset="0.004" stop-color="#e38ddd"/><stop offset="1" stop-color="#9571f6"/></linearGradient><linearGradient id="b" x1="-0.149" y1="0.628" x2="2.219" y2="0.017" gradientUnits="objectBoundingBox"><stop offset="0" stop-color="#fdf53f"/><stop offset="1" stop-color="#d93c65"/></linearGradient><clipPath id="d"><path class="a" d="M4430.01,480.27a13.729,13.729,0,0,1-5.865-2.744c-4.783-5.561-14.416-15.39-14.3-23.144.02-1.324,5.868-2.811,6.641-4.06,3.5-1.853,4.828-2.279,7.288-5.675,7.264-10.025-11.083-27.434,9.045-34.729,14.744-5.344,27.6-.752,24.965-23.891s13.9-66.249,39.123-51.143c14.477,8.67,1.072,29.039,8.953,43.277,7.49,13.53,2.129,25.179-12.2,34.132s-6.2,14.988-1.343,27.946c5.829,15.565-18.34,19.439-29.651,20.275C4453.554,461.188,4430.815,469.048,4430.01,480.27Z" transform="translate(-4409.842 -331.747)"/></clipPath><clipPath id="f"><path class="b" d="M4425.651,425.6a16.283,16.283,0,0,1-7.617.987c-8.328-2.521-24.227-6.227-29.049-14.06-.824-1.338,4.083-6.549,4.062-8.292,2.322-4.082,3.381-5.354,3.682-10.319.889-14.659-28.559-20.4-13.055-40.519,11.355-14.735,27.147-18.323,9.779-39.806s-28.262-75.158,6.6-76.1c20.009-.538,19.558,28.384,36.512,37.618,16.109,8.775,18.159,23.848,9.516,41.931s3.339,18.947,16.446,28.827c15.744,11.869-5.983,31.132-16.772,39.17C4437.07,391.511,4419.314,413.854,4425.651,425.6Z" transform="translate(-4377.135 -237.485)"/></clipPath><linearGradient id="g" x1="0.789" y1="0.089" x2="0.393" y2="0.614" gradientUnits="objectBoundingBox"><stop offset="0.004" stop-color="#3dcef4"/><stop offset="1" stop-color="#00b0f0"/></linearGradient><linearGradient id="h" x1="0.234" y1="0.209" x2="0.611" y2="0.596" gradientUnits="objectBoundingBox"><stop offset="0" stop-color="#063e96"/><stop offset="0.996" stop-color="#002060"/></linearGradient><linearGradient id="i" x1="0.701" y1="0.058" x2="0.331" y2="0.794" xlink:href="#g"/><linearGradient id="j" x1="0.707" y1="-0.008" x2="0.303" y2="0.768" gradientUnits="objectBoundingBox"><stop offset="0" stop-color="#ffc444"/><stop offset="0.996" stop-color="#f36f56"/></linearGradient><linearGradient id="k" x1="-0.074" y1="0.64" x2="5.554" y2="-0.67" xlink:href="#j"/><linearGradient id="l" x1="-103.544" y1="-3.754" x2="-85.05" y2="-6.127" xlink:href="#j"/><linearGradient id="m" x1="0.942" y1="0.294" x2="-0.221" y2="0.776" xlink:href="#g"/><linearGradient id="n" x1="-0.065" y1="0.733" x2="21.541" y2="-7.06" xlink:href="#j"/><linearGradient id="o" x1="0.549" y1="0.594" x2="0.333" y2="0.04" xlink:href="#h"/><linearGradient id="p" x1="1.021" y1="1.739" x2="0.319" y2="0.126" xlink:href="#h"/><linearGradient id="q" x1="-0.181" y1="1.063" x2="1.394" y2="0.112" xlink:href="#h"/><linearGradient id="r" x1="1.276" y1="-0.086" x2="-1.788" y2="2.226" gradientUnits="objectBoundingBox"><stop offset="0" stop-color="#ab316d"/><stop offset="1" stop-color="#792d3d"/></linearGradient><linearGradient id="s" x1="0.9" y1="-0.042" x2="0.1" y2="1.042" xlink:href="#r"/><linearGradient id="t" x1="0.852" y1="-0.243" x2="-0.539" y2="2.69" xlink:href="#r"/><linearGradient id="u" x1="0.697" y1="-0.158" x2="0.122" y2="0.823" xlink:href="#r"/><linearGradient id="v" x1="0.697" y1="-0.158" x2="0.122" y2="0.823" xlink:href="#r"/><linearGradient id="w" x1="-31.444" y1="-58.176" x2="-31.393" y2="-58.176" xlink:href="#h"/><linearGradient id="x" x1="-57.051" y1="-17.376" x2="-56.722" y2="-15.594" xlink:href="#j"/><linearGradient id="y" x1="-72.174" y1="-27.093" x2="-71.976" y2="-25.78" xlink:href="#j"/><linearGradient id="z" x1="0" y1="0.5" x2="1" y2="0.5" xlink:href="#h"/></defs><g transform="translate(-4024.083 -207.713)"><path class="c" d="M4178.737,219.9c6.838,9.789-1.18,25.659,8.967,33.021,9.876,7.166,22.01-4.58,31.318,1.588,13.808,9.151,11.286,51.025-8.9,77.042-6.072,7.824-11.145,10.868-13.391,19.717-4.825,19,12.131,30.3,8.9,39.7-7.266,21.159-119,38.915-163.832-24.677-20.938-29.7-24.071-72.587-5.363-105.159C4070.244,202.276,4163.394,197.935,4178.737,219.9Z" transform="translate(0 0)"/><g transform="translate(4111.027 215.045)"><g transform="translate(8.055 23.213)"><path class="a" d="M4430.01,480.27a13.729,13.729,0,0,1-5.865-2.744c-4.783-5.561-14.416-15.39-14.3-23.144.02-1.324,5.868-2.811,6.641-4.06,3.5-1.853,4.828-2.279,7.288-5.675,7.264-10.025-11.083-27.434,9.045-34.729,14.744-5.344,27.6-.752,24.965-23.891s13.9-66.249,39.123-51.143c14.477,8.67,1.072,29.039,8.953,43.277,7.49,13.53,2.129,25.179-12.2,34.132s-6.2,14.988-1.343,27.946c5.829,15.565-18.34,19.439-29.651,20.275C4453.554,461.188,4430.815,469.048,4430.01,480.27Z" transform="translate(-4409.842 -331.747)"/><g class="d"><g class="e" transform="translate(7.219 -3.635)"><path class="f" d="M4439.325,455.487l-.169-.311c47.929-26.04,75.215-77.694,72.989-138.175l.354-.013c1.054,28.664-4.773,56.4-16.854,80.2A135.807,135.807,0,0,1,4439.325,455.487Z" transform="translate(-4439.156 -316.988)"/><path class="f" d="M4595.579,788.707c-14.368-4.02-38.06-3.1-52.815,2.054l-.117-.334c14.813-5.173,38.6-6.1,53.027-2.061Z" transform="translate(-4517.161 -670.387)"/><path class="f" d="M4477.049,697.8l-.249-.252c5.784-5.7,8.462-14.114,7.959-24.994-.369-7.978-2.407-17.074-6.059-27.037l.333-.122c3.664,10,5.709,19.128,6.08,27.142C4485.62,683.519,4482.907,692.019,4477.049,697.8Z" transform="translate(-4467.529 -564.517)"/><path class="f" d="M4674.174,579.133l-.261-.239c10.349-11.313,26.066-14.913,37.428-15.94l.032.353C4700.073,564.328,4684.446,567.9,4674.174,579.133Z" transform="translate(-4616.101 -502.381)"/><path class="f" d="M4670.175,373.115l-.354-.01c.486-17.267-10.088-32-16.435-39.238l.266-.233C4660.033,340.916,4670.664,355.728,4670.175,373.115Z" transform="translate(-4600.629 -329.535)"/></g></g></g><g transform="translate(0 0)"><path class="b" d="M4425.651,425.6a16.283,16.283,0,0,1-7.617.987c-8.328-2.521-24.227-6.227-29.049-14.06-.824-1.338,4.083-6.549,4.062-8.292,2.322-4.082,3.381-5.354,3.682-10.319.889-14.659-28.559-20.4-13.055-40.519,11.355-14.735,27.147-18.323,9.779-39.806s-28.262-75.158,6.6-76.1c20.009-.538,19.558,28.384,36.512,37.618,16.109,8.775,18.159,23.848,9.516,41.931s3.339,18.947,16.446,28.827c15.744,11.869-5.983,31.132-16.772,39.17C4437.07,391.511,4419.314,413.854,4425.651,425.6Z" transform="translate(-4377.135 -237.485)"/><g class="g"><g class="e" transform="translate(-5.743 -2.633)"><path class="f" d="M4440.153,412l-.367-.2c31.4-56.576,25.825-125.648-14.9-184.769l.346-.239c19.3,28.019,31.124,59.487,34.185,91A161.106,161.106,0,0,1,4440.153,412Z" transform="translate(-4407.381 -226.792)"/><path class="f" d="M4593.963,693.348c-16.94,5.123-40.068,21.128-51.557,35.678l-.33-.261c11.534-14.607,34.755-30.676,51.764-35.82Z" transform="translate(-4495.715 -578.148)"/><path class="f" d="M4414.594,769.078l-.409-.094c2.157-9.392-.516-19.514-7.946-30.084-5.448-7.751-13.278-15.558-23.275-23.205l.255-.334c10.031,7.673,17.892,15.511,23.364,23.3C4414.084,749.33,4416.78,759.565,4414.594,769.078Z" transform="translate(-4375.786 -595.043)"/><path class="f" d="M4561.363,456.238l-.414-.073c3.157-17.912,16.6-31.52,27.316-39.782l.256.333C4577.861,424.932,4564.5,438.458,4561.363,456.238Z" transform="translate(-4509.939 -369.693)"/><path class="f" d="M4395.605,324.98l-.361.215c-10.505-17.592-30.466-25.6-41.429-28.812l.118-.4C4364.956,299.207,4385.026,307.265,4395.605,324.98Z" transform="translate(-4353.816 -278.941)"/></g></g></g></g><g transform="translate(4024.56 218.453)"><g transform="translate(0)"><path class="h" d="M4359.331,658.535a10.5,10.5,0,0,0,9.742-.551c4.558-2.9,4.862-9.462,4.68-24.688-.345-28.971-1.751-38.445-3.049-44.712-2.894-13.973-4.535-18.192-8.641-21.611-5.613-4.674-15.574-7.637-20.292-3.706-7.133,5.945,5.872,21.135,9.558,55.876C4353.5,639.651,4351.122,654.578,4359.331,658.535Z" transform="translate(-4262.427 -485.07)"/><path class="i" d="M4109.611,333.381c-11.949,1.473-21.154-4.561-25.473-7.392-3.966-2.6-7.59-5.048-8.8-9.415-1.294-4.656,1.307-7.335-.255-11.97-1.491-4.421-5.016-5.417-7.858-8.265-7.484-7.5-8.336-25.945,1.439-36.449,6.457-6.939,18-10.893,25.456-7.083,5.517,2.818,3.907,7.383,9.961,11.511,8.894,6.064,16.491-.976,24.545,5,5.155,3.825,8.413,11.434,7.109,17.358-.9,4.1-3.4,4.729-3.707,8.721-.456,5.941,4.809,8.06,5.7,12.973C4139.367,317.443,4125.246,331.454,4109.611,333.381Z" transform="translate(-4052.737 -251.325)"/><path class="j" d="M4112.859,642.942c-.252,6.169-.909,8.12.552,11.4,8.229,18.457,57.59,20.481,66.352,4.595,3.2-5.806-1.593-9.334-.551-27.57.785-13.725,3.532-12.264,3.861-24.4.468-17.22-5.129-17.683-5.883-36.988-.083-2.139-.149-5.574-2.538-7.976-3.255-3.273-8.4-2.186-16.21-1.4-13.024,1.314-22.889,2.309-33.625.978-5.226-.648-12.2-2.038-16.5,2.022a10.86,10.86,0,0,0-1.89,2.513C4100.273,577.583,4114.156,611.222,4112.859,642.942Z" transform="translate(-4085.433 -483.813)"/><g class="k" transform="translate(19.412 81.669)"><path class="l" d="M4167.725,669.881c2.643-15.227,12.147-25.544,7.719-31.154-2.662-3.373-6.6-.283-13.233-3.309-12.351-5.633-9.368-21.2-20.953-27.019-7.652-3.84-11.933,1.457-19.575-1.654-5.4-2.2-11.323-8.129-14.884-23.79-.127.2-.252.409-.372.631-6.153,11.471,7.729,45.109,6.433,76.829-.252,6.169-.909,8.12.552,11.4,6.244,14.007,36.174,18.547,54.076,12.98A48.968,48.968,0,0,1,4167.725,669.881Z" transform="translate(-4104.846 -582.956)"/></g><path class="m" d="M4160.03,459.584s-2.243,17.932-8.861,22.041c-8.889,5.518-18.268,3.5-18.521,5.387-.457,3.414,32,17.618,54.8,4.1a37.3,37.3,0,0,0,4.73-3.325,1.582,1.582,0,0,0-.854-2.875,84.374,84.374,0,0,1-11.523-1.142,14.715,14.715,0,0,1-12.006-13.439l-.492-6.734Z" transform="translate(-4106.385 -408.297)"/><path class="n" d="M4227.343,434.886s4.315,5.923,11.083,3.454c6.06-2.21,2.443-17.86-2.363-19.646a8.5,8.5,0,0,0-6.515.9c-1.384.864-5.08,5.455-2.961,10.6-1.53-.444-2.878-.041-3.215.717-.429.962.868,2.271,1.162,2.568A5.14,5.14,0,0,0,4227.343,434.886Z" transform="translate(-4174.705 -377.247)"/><path class="o" d="M4063.646,648.209a39.6,39.6,0,0,0,20.175-13.594,44.276,44.276,0,0,0,9.78-23.666l-2.11-5.474a27.443,27.443,0,0,1-12.958,7.168c-6.727,1.532-17.677,1.19-22.332-5.238-3.268-4.514-2.179-12.322,0-27.938,1.028-7.37,1.96-10.664-.015-12.3-3.248-2.7-11.341,1.23-16.2,5.134-5.844,4.7-8.958,10.92-10.808,16.727-5.967,18.722-4.56,50.792,13.509,58.909C4051.022,651.675,4060.254,649.141,4063.646,648.209Z" transform="translate(-4026.018 -488.713)"/><path class="p" d="M4298.239,696.944c3.415-1.506,4.41-4.636,5.078-4.282.743.394.2,4.638-2.425,7.211-3.478,3.408-9.057,2.362-10.59,1.995l-1.668,2.581-3.438-.385,4.04-5.543C4290.538,696.524,4294.172,698.739,4298.239,696.944Z" transform="translate(-4221.37 -583.955)"/></g><g transform="translate(92.99 27.011)"><g transform="translate(10.025)"><path class="q" d="M4474.569,642.392a40.815,40.815,0,0,1-12.8-3.628c-2.66-1.2-3.751-2.444-6.235-4.96-5.893-5.966-5.282-15.893-4.825-29.017.758-21.711-8.625-23.3-5.872-41.493,1.124-7.419,3.028-20,12.772-26.786,5.028-3.5,12.255-3.77,26.5-4.165,17.838-.494,26.756-.757,33.248,2.188,9.76,4.427,21.852,15.027,23.481,28.7,2.06,17.281-14.7,21.887-16.15,44.494-1.114,17.354,8.031,26.216,2.633,31.544-6.052,5.973-17.352-5.231-36.577.368C4486.411,640.9,4481.611,643.03,4474.569,642.392Z" transform="translate(-4444.325 -489.918)"/><path class="r" d="M4549.556,443.414s.955,7.594,3.778,13.113c2.551,4.987,14.058,7.329,16.429,8.3s-3.909,4.86-10.434,6.048-25.431,1.2-29.017-1.022,2.536-2.524,7.094-4.624,6.536-11.5,5.373-15.6S4549.556,443.414,4549.556,443.414Z" transform="translate(-4508.323 -423.121)"/><path class="s" d="M4552.679,379.373c-3.683-3.08-4.19-3.434-4.655-4.563-1.865-4.533,1.233-11.194,5.841-13.142.24-.1,3.332-1.372,4.655-.091,1.122,1.087-.262,2.823.638,5.019.843,2.056,2.686,2.068,6.3,4.563,2.976,2.055,4.824,3.333,5.384,5.293,1.155,4.042-3.341,10.4-7.757,10.586C4561.494,387.107,4561,386.333,4552.679,379.373Z" transform="translate(-4522.071 -361.009)"/><g transform="translate(27.883 15.2)"><path class="r" d="M4570.3,434.229a9.728,9.728,0,0,1-8.935,3.484c-5.046-.819-4.693-12.278-1.218-14.383a6.442,6.442,0,0,1,5.074-.165c1.013.392,1.323.858,2.99,1.467,1.538.56,2,.429,2.438.875.548.558.865,1.829-.449,5.062a2.775,2.775,0,0,1,3.049-.684,1.743,1.743,0,0,1,.613.724C4574.443,431.979,4573.1,433.526,4570.3,434.229Z" transform="translate(-4557.549 -422.73)"/></g></g><path class="t" d="M4449.825,613.3l-5.651,8.52c3.19,5.81,11.819,19.625,28.811,27.505,14.962,6.939,43.6,12.687,60.654-5.514,16.082-17.167,9.383-42.317,8.822-44.3-2.479-8.75-9.085-22.158-15.807-21.689-5.787.4-9.466,9.833-18.288,34.171-3.13,8.635-5.7,9.234-6.319,9.766C4489.793,632.269,4463.42,620.4,4449.825,613.3Z" transform="translate(-4434.186 -524.425)"/><path class="r" d="M4418.069,697.572a73.506,73.506,0,0,0-6.07-8.458,9,9,0,0,0-7.791-2.672c-2.229.231,2.419,5.907,4.483,6.814s6.489,8.017,6.489,8.017Z" transform="translate(-4403.617 -606.25)"/></g></g><g transform="translate(4043.267 384.536)"><path class="u" d="M4110.424,926.349a3.862,3.862,0,0,0-3.691,2.787l-4.672,16.114a1.882,1.882,0,0,0,2.329,2.334c5.654-1.641,17.453-4.135,26.864.063,12.863,5.737,25.693.437,31.223,0s20.158,1.833,23.576,2.65,12.461-.3,21.36-2.6,25.359,3.292,31.679,2.866c4.911-.331,14.452-1.826,20.445-1.161a2.562,2.562,0,0,0,2.734-3.29q-2.69-8.891-5.38-17.782a3.662,3.662,0,0,0-3.521-2.6C4234.889,925.808,4128.277,926.267,4110.424,926.349Z" transform="translate(-4101.984 -925.728)"/></g><g transform="translate(4133.465 318.411)"><path class="r" d="M4479.841,686.971V667.134h-7.324V687.06c-.823.651-4.272,3.463-4.272,4.9v45.723a2.473,2.473,0,0,0,1.575,2.141,17.561,17.561,0,0,0,6.283,1.46,16.476,16.476,0,0,0,6.092-1.46,2.224,2.224,0,0,0,1.309-2.141v-46.13S4483.45,689.382,4479.841,686.971Z" transform="translate(-4468.244 -664.692)"/><path class="v" d="M3.3,0H6.462a3.3,3.3,0,0,1,3.3,3.3V20.094a3.3,3.3,0,0,1-3.3,3.3H3.3a3.3,3.3,0,0,1-3.3-3.3V3.3A3.3,3.3,0,0,1,3.3,0Z" transform="translate(3.052 37.234)"/><rect class="w" width="7.325" height="9.766" transform="translate(4.273 6.714)"/><path class="x" d="M3.662,0H4.883A3.662,3.662,0,0,1,8.545,3.662v0A3.662,3.662,0,0,1,4.883,7.325H3.662A3.662,3.662,0,0,1,0,3.662v0A3.662,3.662,0,0,1,3.662,0Z" transform="translate(3.662 0)"/></g><g transform="translate(4110.452 303.644)"><path class="r" d="M4389.215,610.112a33.315,33.315,0,0,0-.237-12.856h-13.606a36.4,36.4,0,0,0,0,12.856,12.517,12.517,0,0,0,5.607,8.373l-.094,14.094h-.926a2.341,2.341,0,0,0-2.3,2.282v-.234h8.7v.234c0-1.041-.494-2.282-1.9-2.282h-1.176V618.774A13.484,13.484,0,0,0,4389.215,610.112Z" transform="translate(-4374.798 -597.256)"/><path class="y" d="M4392.792,630.516h-11.6c-.1,7.679,4.03,11.145,4.968,11.816.116.083.254.47.4.47h.245c.127,0,.253-.378.361-.446C4393,638.71,4392.792,630.516,4392.792,630.516Z" transform="translate(-4379.615 -622.325)"/></g><g transform="translate(4095.517 305.319)"><path class="r" d="M4328.571,616.913a33.306,33.306,0,0,0-.238-12.857h-13.606a36.41,36.41,0,0,0,0,12.857,12.518,12.518,0,0,0,5.608,8.373l-.094,14.094h-.927a2.341,2.341,0,0,0-2.3,2.282v-.234h8.7v.234c0-1.041-.494-2.282-1.9-2.282h-1.176V625.574A13.486,13.486,0,0,0,4328.571,616.913Z" transform="translate(-4314.154 -604.056)"/><path class="z" d="M4332.147,637.317h-11.6c-.095,7.679,4.03,11.145,4.968,11.816.116.083.254.47.4.47h.244c.128,0,.253-.378.361-.446C4332.358,645.511,4332.147,637.317,4332.147,637.317Z" transform="translate(-4318.971 -629.126)"/></g><g transform="translate(4076.437 380.145)"><path class="aa" d="M4324.93,962.294c.031.344,7.183.276,30.079,1.7l1.717.108c27.783,1.763,40.746,3.42,40.848,2.908.121-.61-17.865-4.9-40.393-5.919C4339.347,960.284,4324.885,961.8,4324.93,962.294Z" transform="translate(-4303.195 -947.818)"/><path class="ab" d="M4241.348,927.219c-.092,2.075,12.512,6.609,24.586,2.9,3.262-1,9.633-2.96,10.388-7.086.938-5.124-7.312-10.707-13.147-13.014-9.433-3.729-19.949-1.818-20.277.308-.267,1.732,6.195,3.85,5.784,5.039-.234.677-2.479.421-8.692.972-2.218.2-3.138.336-3.293.851-.378,1.256,4.135,3.638,4.4,3.774,4,2.085,6.893,1.966,6.972,2.819C4248.186,925.087,4241.414,925.713,4241.348,927.219Z" transform="translate(-4236.674 -907.901)"/><g transform="translate(8.121 8.244)"><path class="ac" d="M4295.721,945.811c-2.245,1.3-4.46-1.254-8.652-.891-5.523.479-7.436,5.41-11.875,8.1a13.65,13.65,0,0,1-5.544,1.847,34.83,34.83,0,0,0,21.139.479c3.262-1,9.632-2.96,10.388-7.086.424-2.317-1.033-4.727-3.294-6.886C4297.6,943.844,4296.8,945.19,4295.721,945.811Z" transform="translate(-4269.65 -941.376)"/></g><path class="ad" d="M4494.7,973.55a11.065,11.065,0,0,0-6.807,2.76,9.326,9.326,0,0,0-1.58,1.722,8.566,8.566,0,0,0-1.3,5.025c.061,2,5.405-1.764,6.345-3.539s7.544-5.242,7.544-5.242A10.639,10.639,0,0,0,4494.7,973.55Z" transform="translate(-4423.852 -957.379)"/></g></g></svg>