<svg xmlns="http://www.w3.org/2000/svg" xmlns:xlink="http://www.w3.org/1999/xlink" width="203.167" height="202.886" viewBox="0 0 203.167 202.886"><defs><style>.a{fill:url(#a);}.b{fill:#fc74b3;}.c{fill:#f4f7fa;}.d{clip-path:url(#c);}.e,.m{mix-blend-mode:soft-light;}.ag,.ai,.aj,.am,.ap,.ay,.e,.m{isolation:isolate;}.f{fill:#fff;}.g{clip-path:url(#d);}.h{fill:url(#e);}.i{fill:url(#f);}.j{fill:url(#g);}.k{fill:url(#h);}.l{fill:url(#i);}.m,.o{fill:#d8dee8;}.ag,.ai,.aj,.am,.ap,.ay,.m{opacity:0.3;}.ai,.n{fill:url(#j);}.p{fill:#97a6b7;}.q{fill:url(#l);}.r{fill:url(#m);}.s{fill:url(#n);}.t{fill:url(#o);}.u{fill:url(#p);}.v{fill:url(#q);}.w{fill:url(#r);}.x{fill:url(#s);}.y{fill:url(#t);}.z{fill:url(#v);}.aa{fill:url(#x);}.ab{fill:url(#y);}.ac{fill:url(#z);}.ad{fill:url(#aa);}.ae{fill:url(#ab);}.af{fill:url(#ac);}.ag,.ai,.aj,.am,.ap,.ay{mix-blend-mode:multiply;}.ag{fill:url(#ad);}.ah{fill:url(#ae);}.aj{fill:url(#ah);}.ak{fill:url(#ak);}.al{fill:url(#al);}.am{fill:url(#am);}.an{fill:url(#an);}.ao{fill:url(#ao);}.ap{fill:url(#ap);}.aq{fill:url(#aq);}.ar{fill:url(#ar);}.as{fill:url(#as);}.at{fill:url(#at);}.au{fill:url(#au);}.av{fill:url(#aw);}.aw{fill:url(#bb);}.ax{fill:url(#bf);}.ay{fill:url(#bh);}.az{fill:url(#bj);}.ba{fill:url(#bk);}.bb{fill:url(#bl);}</style><linearGradient id="a" x1="0.904" y1="-0.182" x2="-0.001" y2="1.101" gradientUnits="objectBoundingBox"><stop offset="0" stop-color="#ffc444"/><stop offset="0.864" stop-color="#f57a54"/><stop offset="0.996" stop-color="#f36f56"/></linearGradient><clipPath id="c"><path class="a" d="M3088.188,494.74c-7.359-16.458,2.123-37.28,11.259-39.158,4.752-.977,7.444,3.576,12.227,1.884,5.3-1.874,4.615-8.389,10.9-18.276,3.249-5.109,9.141-14.373,16.618-14.6,7.415-.221,9,8.67,16.987,8.873,7.556.192,9.014-7.684,19.556-9.764.981-.193,12.041-2.237,16.612,3.662,4.644,5.994.95,18.069-6.025,23.049-6.337,4.525-13.52,1.864-15.176,5.69-1.825,4.217,6.3,8.83,4.842,13.342-2.108,6.522-20.621,1.642-26.208,10.677-3.284,5.313,1.644,9.382-1.01,16.933-3.426,9.747-15.843,14.935-24.71,16.023C3111.213,514.659,3094.566,509.005,3088.188,494.74Z" transform="translate(-3085.558 -423.206)"/></clipPath><clipPath id="d"><path class="b" d="M3022.368,366.52c-13.351-12.115-13.033-34.992-5.421-40.383,3.959-2.8,8.254.284,11.954-3.187,4.1-3.845.856-9.536,2.642-21.117.923-5.984,2.6-16.834,9.354-20.042,6.7-3.181,11.721,4.325,19.121,1.3,7-2.859,5.167-10.658,13.986-16.8.82-.571,10.128-6.886,16.684-3.32,6.66,3.623,8.129,16.165,3.742,23.528-3.985,6.689-11.632,7.138-11.611,11.308.023,4.595,9.317,5.555,9.794,10.273.69,6.82-18.224,9.789-19.71,20.307-.874,6.185,5.275,7.931,5.878,15.913.778,10.3-8.508,20.042-16.191,24.6C3051.455,375.51,3033.94,377.02,3022.368,366.52Z" transform="translate(-3011.678 -261.889)"/></clipPath><linearGradient id="e" y1="0.5" x2="1" y2="0.5" gradientUnits="objectBoundingBox"><stop offset="0" stop-color="#063e96"/><stop offset="0.996" stop-color="#002060"/></linearGradient><linearGradient id="f" y1="0.5" x2="1" y2="0.5" gradientUnits="objectBoundingBox"><stop offset="0" stop-color="#311944"/><stop offset="1" stop-color="#893976"/></linearGradient><linearGradient id="g" y1="0.5" x2="1" y2="0.5" gradientUnits="objectBoundingBox"><stop offset="0" stop-color="#444b8c"/><stop offset="0.996" stop-color="#26264f"/></linearGradient><linearGradient id="h" x1="-0.109" y1="0.878" x2="0.247" y2="0.528" xlink:href="#g"/><linearGradient id="i" y1="0.5" x2="1" y2="0.5" gradientUnits="objectBoundingBox"><stop offset="0.004" stop-color="#3dcef4"/><stop offset="1" stop-color="#00b0f0"/></linearGradient><linearGradient id="j" y1="0.5" x2="1" y2="0.5" gradientUnits="objectBoundingBox"><stop offset="0.004" stop-color="#e38ddd"/><stop offset="1" stop-color="#9571f6"/></linearGradient><linearGradient id="l" x1="0.22" y1="0.755" x2="0.541" y2="0.038" xlink:href="#j"/><linearGradient id="m" x1="-0.178" y1="1.168" x2="0.79" y2="0.215" xlink:href="#j"/><linearGradient id="n" x1="0.264" y1="7.877" x2="0.557" y2="-1.301" xlink:href="#j"/><linearGradient id="o" x1="0.676" y1="0.537" x2="1.126" y2="-0.289" xlink:href="#j"/><linearGradient id="p" x1="0.707" y1="-0.004" x2="0.4" y2="0.675" xlink:href="#f"/><linearGradient id="q" x1="1.705" y1="-1.009" x2="0.347" y2="0.691" xlink:href="#f"/><linearGradient id="r" x1="1.705" y1="-1.009" x2="0.347" y2="0.691" xlink:href="#j"/><linearGradient id="s" x1="4.848" y1="-4.634" x2="1.559" y2="-0.751" xlink:href="#f"/><linearGradient id="t" x1="1.052" y1="-2.973" x2="0.514" y2="0.41" xlink:href="#j"/><linearGradient id="v" x1="0.853" y1="0.523" x2="0.004" y2="0.483" xlink:href="#g"/><linearGradient id="x" x1="0.508" y1="0.702" x2="0.474" y2="-0.349" xlink:href="#i"/><linearGradient id="y" x1="0.637" y1="-0.418" x2="0.375" y2="1.343" xlink:href="#j"/><linearGradient id="z" x1="0.487" y1="0.533" x2="-0.214" y2="-2.818" gradientUnits="objectBoundingBox"><stop offset="0" stop-color="#ffc444"/><stop offset="0.996" stop-color="#f36f56"/></linearGradient><linearGradient id="aa" x1="0.458" y1="0.305" x2="0.09" y2="-1.826" xlink:href="#z"/><linearGradient id="ab" x1="0.367" y1="1.129" x2="0.64" y2="-0.074" xlink:href="#z"/><linearGradient id="ac" x1="-94.53" y1="36.065" x2="-90.829" y2="34.097" xlink:href="#z"/><linearGradient id="ad" x1="0" y1="0.5" x2="1.112" y2="0.5" xlink:href="#j"/><linearGradient id="ae" x1="0.498" y1="0.596" x2="0.39" y2="-0.698" xlink:href="#i"/><linearGradient id="ah" x1="-29.356" y1="-230.884" x2="-28.291" y2="-230.884" xlink:href="#j"/><linearGradient id="ak" x1="-0.106" y1="0.877" x2="0.246" y2="0.522" gradientUnits="objectBoundingBox"><stop offset="0" stop-color="#002060"/><stop offset="1" stop-color="#03388c"/></linearGradient><linearGradient id="al" x1="0.615" y1="0.023" x2="0.209" y2="1.712" xlink:href="#i"/><linearGradient id="am" x1="0.739" y1="-0.007" x2="0.083" y2="1.696" xlink:href="#j"/><linearGradient id="an" x1="0.846" y1="1.274" x2="0.558" y2="0.628" xlink:href="#f"/><linearGradient id="ao" x1="0.599" y1="0.023" x2="0.249" y2="1.711" xlink:href="#i"/><linearGradient id="ap" x1="0.705" y1="-0.011" x2="0.135" y2="1.69" xlink:href="#j"/><linearGradient id="aq" x1="0.805" y1="1.287" x2="0.551" y2="0.631" xlink:href="#f"/><linearGradient id="ar" x1="0.22" y1="0.755" x2="0.541" y2="0.038" xlink:href="#f"/><linearGradient id="as" x1="-0.178" y1="1.168" x2="0.79" y2="0.215" xlink:href="#f"/><linearGradient id="at" x1="0.264" y1="7.877" x2="0.557" y2="-1.301" xlink:href="#f"/><linearGradient id="au" x1="0.676" y1="0.537" x2="1.126" y2="-0.289" xlink:href="#f"/><linearGradient id="aw" x1="1.705" y1="-1.009" x2="0.347" y2="0.691" xlink:href="#f"/><linearGradient id="bb" x1="0.853" y1="0.523" x2="0.004" y2="0.483" xlink:href="#ak"/><linearGradient id="bf" x1="-2.945" y1="-1.749" x2="0.446" y2="0.343" xlink:href="#z"/><linearGradient id="bh" x1="-1.068" y1="4.676" x2="-0.665" y2="3.548" xlink:href="#j"/><linearGradient id="bj" x1="-11.847" y1="-9.957" x2="-7.53" y2="-6.276" xlink:href="#z"/><linearGradient id="bk" y1="0.5" x2="1" y2="0.5" gradientUnits="objectBoundingBox"><stop offset="0" stop-color="#00b0f0"/><stop offset="0.996" stop-color="#3dcef4"/></linearGradient><linearGradient id="bl" x1="-4.339" y1="-4.531" x2="-2.067" y2="-2.19" xlink:href="#z"/></defs><g transform="translate(-2709.518 -257.023)"><path class="c" d="M2759.059,268.8c-6.937,9.711.909,25.655-9.308,32.906-9.946,7.058-21.948-4.809-31.314,1.258-13.9,9-11.816,50.873,8.086,77.086,5.985,7.883,11.023,10.979,13.175,19.845,4.622,19.039-12.442,30.156-9.316,39.582,7.038,21.222,118.514,40.141,163.986-22.938,21.237-29.461,24.819-72.287,6.466-105.035C2867.668,252.326,2774.624,247.009,2759.059,268.8Z"/><g transform="translate(2803.029 298.349)"><g transform="translate(0)"><path class="a" d="M3088.188,494.74c-7.359-16.458,2.123-37.28,11.259-39.158,4.752-.977,7.444,3.576,12.227,1.884,5.3-1.874,4.615-8.389,10.9-18.276,3.249-5.109,9.141-14.373,16.618-14.6,7.415-.221,9,8.67,16.987,8.873,7.556.192,9.014-7.684,19.556-9.764.981-.193,12.041-2.237,16.612,3.662,4.644,5.994.95,18.069-6.025,23.049-6.337,4.525-13.52,1.864-15.176,5.69-1.825,4.217,6.3,8.83,4.842,13.342-2.108,6.522-20.621,1.642-26.208,10.677-3.284,5.313,1.644,9.382-1.01,16.933-3.426,9.747-15.843,14.935-24.71,16.023C3111.213,514.659,3094.566,509.005,3088.188,494.74Z" transform="translate(-3085.558 -423.206)"/><g class="d"><g class="e" transform="translate(3.808 -7.916)"><path class="f" d="M3101.283,516.666l-.41-.4a488.384,488.384,0,0,1,45.839-41.884,309.089,309.089,0,0,1,34.95-24.316c19.069-11.238,30.03-14.006,30.139-14.032l.136.555c-.107.027-11.012,2.784-30.02,13.991C3164.373,460.925,3136.142,480.787,3101.283,516.666Z" transform="translate(-3100.873 -424.93)"/><path class="f" d="M3418.558,417.655a62.892,62.892,0,0,1,18.057-26.28l.351.451a62.3,62.3,0,0,0-17.87,26.02Z" transform="translate(-3339.558 -391.375)"/><path class="f" d="M3276.424,454.492c.474-19.287,4.134-31.062,7.12-37.544,3.253-7.06,6.363-9.5,6.493-9.605l.349.453c-.031.024-3.154,2.492-6.35,9.45-2.952,6.429-6.571,18.113-7.042,37.26Z" transform="translate(-3232.769 -403.372)"/><path class="f" d="M3147.226,552.068c-6.771-33.043,2.394-50.693,2.488-50.867l.5.27c-.023.044-2.385,4.626-3.817,13.366-1.26,7.7-2.043,20.383,1.386,37.117Z" transform="translate(-3133.828 -473.89)"/><path class="f" d="M3300.212,585.721a52.3,52.3,0,0,1-5.538-2.4l.257-.51c11.952,6.03,24.92,6.526,33.694,5.879a77.8,77.8,0,0,0,16.338-2.877l.175.544a78.421,78.421,0,0,1-16.471,2.9C3321.163,589.814,3310.61,589.537,3300.212,585.721Z" transform="translate(-3246.481 -535.207)"/><path class="f" d="M3180.305,674q-1.5-.552-3.01-1.228l.235-.521c12.725,5.733,25.563,4.374,34.092,2.225a64.349,64.349,0,0,0,15.618-6.1l.293.491a64.994,64.994,0,0,1-15.772,6.162C3203.817,677.036,3192.166,678.357,3180.305,674Z" transform="translate(-3158.292 -599.497)"/></g></g></g></g><g transform="translate(2784.657 258.233)"><g transform="translate(0 0)"><path class="b" d="M3022.368,366.52c-13.351-12.115-13.033-34.992-5.421-40.383,3.959-2.8,8.254.284,11.954-3.187,4.1-3.845.856-9.536,2.642-21.117.923-5.984,2.6-16.834,9.354-20.042,6.7-3.181,11.721,4.325,19.121,1.3,7-2.859,5.167-10.658,13.986-16.8.82-.571,10.128-6.886,16.684-3.32,6.66,3.623,8.129,16.165,3.742,23.528-3.985,6.689-11.632,7.138-11.611,11.308.023,4.595,9.317,5.555,9.794,10.273.69,6.82-18.224,9.789-19.71,20.307-.874,6.185,5.275,7.931,5.878,15.913.778,10.3-8.508,20.042-16.191,24.6C3051.455,375.51,3033.94,377.02,3022.368,366.52Z" transform="translate(-3011.678 -261.889)"/><g class="g"><g class="e" transform="translate(5.346 -7.591)"><path class="f" d="M3078.745,368.088l-.536-.2a488.328,488.328,0,0,1,25.151-56.771,309,309,0,0,1,22.237-36.309c12.947-17.952,21.873-24.89,21.961-24.958l.348.453c-.088.068-8.966,6.974-21.87,24.873C3114.126,291.7,3096.253,321.227,3078.745,368.088Z" transform="translate(-3067.011 -245.252)"/><path class="f" d="M3263.56,262.682a62.9,62.9,0,0,1,5.978-31.321l.5.272a62.3,62.3,0,0,0-5.91,31.008Z" transform="translate(-3206.155 -231.361)"/><path class="f" d="M3148.1,358.911c-7.314-17.853-8.694-30.106-8.562-37.241.143-7.772,2.008-11.26,2.087-11.4l.5.275c-.019.035-1.888,3.549-2.018,11.2-.121,7.074,1.259,19.227,8.521,36.95Z" transform="translate(-3113.082 -290.644)"/><path class="f" d="M3051.359,510.653c-19.476-27.539-18.174-47.384-18.159-47.581l.57.045c0,.049-.326,5.195,1.874,13.773,1.938,7.554,6.318,19.487,16.181,33.433Z" transform="translate(-3033.177 -405.452)"/><path class="f" d="M3191.89,433.317a52.237,52.237,0,0,1-6.035.028l.031-.57c13.368.72,25.442-4.036,33.217-8.153a77.794,77.794,0,0,0,13.806-9.2l.379.428a78.434,78.434,0,0,1-13.917,9.275C3212.719,428.649,3202.944,432.635,3191.89,433.317Z" transform="translate(-3147.888 -369.652)"/><path class="f" d="M3122.268,554.445q-1.6.1-3.249.084l.006-.571c13.956.137,25.166-6.264,32.113-11.659a64.36,64.36,0,0,0,11.853-11.86l.466.331a65.008,65.008,0,0,1-11.968,11.98C3145.017,547.776,3134.878,553.666,3122.268,554.445Z" transform="translate(-3097.672 -456.066)"/></g></g></g></g><g transform="translate(2718.623 262.563)"><path class="h" d="M2819.538,291.12c1.921-2.3,3.221-4.2,2.6-5.471-.892-1.835-5.286-1.413-7.558-1.195-6.755.649-8.209,2.792-12.03,3.287-9.068,1.174-12.391-9.4-20.972-8.372A13.516,13.516,0,0,0,2770.8,288.9c-1.923,7.212,4.218,14.717,10.113,17.739,9.606,4.925,20.374-.747,25.365-3.4C2811.927,300.242,2814.765,296.84,2819.538,291.12Z" transform="translate(-2764.398 -279.298)"/><path class="i" d="M2903.062,611.339l-3.472,9.684h1.736Z" transform="translate(-2861.428 -528.769)"/><path class="j" d="M2895.138,632.285s-1.092,2.785-.218,3.648,2.555,2.295,3.792,2.519-.99-3.409-2.282-4.787Z" transform="translate(-2857.666 -544.506)"/><path class="k" d="M2897.969,414.917c1.023,4.052,4.55,10.27,3.225,17.154-1.414,7.35-4.472,10.568-7.591,19.12a79.478,79.478,0,0,0-4.351,19.159l-1.946.206a25.884,25.884,0,0,1-2.106-13.321c.706-5.686,2.91-5.723,4.279-11.587,1.81-7.751-1.341-10.683-.867-23.493.106-2.868.355-5.189.533-6.611C2892.949,415.4,2894.167,415.059,2897.969,414.917Z" transform="translate(-2850.488 -381.192)"/><g transform="translate(0 49.896)"><path class="l" d="M2768.167,530.915c-8.638-1.369-15.365-11.366-15.365-22.383s6.727-19.6,15.365-19.149c9.038.47,16.679,10.562,16.679,22.522S2777.205,532.347,2768.167,530.915Z" transform="translate(-2751.143 -487.023)"/><path class="m" d="M2770.5,521.973c.105-9.281,3.539-14.14,1.748-22.328a24.468,24.468,0,0,0-5.024-10.253c-8.179.193-14.425,8.537-14.425,19.16,0,11.017,6.727,21.014,15.365,22.383a12.356,12.356,0,0,0,3.262.088A41.354,41.354,0,0,1,2770.5,521.973Z" transform="translate(-2751.143 -487.043)"/><path class="n" d="M2763.155,479.96c-9.589-.441-17.024,9.113-17.024,21.32s7.435,23.325,17.024,24.9c10.085,1.659,18.652-7.774,18.652-21.148S2773.24,480.423,2763.155,479.96Zm0,43.878c-8.638-1.369-15.365-11.366-15.365-22.383s6.727-19.6,15.365-19.149c9.038.47,16.679,10.562,16.679,22.522S2772.193,525.27,2763.155,523.837Z" transform="translate(-2746.131 -479.945)"/><path class="o" d="M2767.209,487.587c-8.819-.449-15.682,8.318-15.682,19.563s6.862,21.456,15.682,22.863c9.238,1.475,17.053-7.19,17.053-19.418S2776.446,488.057,2767.209,487.587Zm0,40.274c-7.943-1.224-14.149-10.4-14.149-20.55s6.206-18.02,14.149-17.572c8.281.467,15.256,9.728,15.256,20.667S2775.489,529.137,2767.209,527.861Z" transform="translate(-2750.185 -485.674)"/><path class="o" d="M2811.059,567c0,1.332-.834,2.319-1.858,2.2a2.48,2.48,0,0,1-1.841-2.6c0-1.32.822-2.307,1.841-2.206A2.471,2.471,0,0,1,2811.059,567Z" transform="translate(-2792.134 -543.397)"/></g><g transform="translate(55.491 52.697)"><path class="p" d="M2998.518,550.165C2987,548.34,2978.09,536.661,2978.09,524s8.912-22.468,20.428-21.869c12.135.631,22.463,12.457,22.463,26.383S3010.654,552.088,2998.518,550.165Z" transform="translate(-2975.899 -499.393)"/><path class="m" d="M3001.646,539.873c.142-10.743,4.75-16.307,2.345-25.824a27.3,27.3,0,0,0-6.729-11.925c-10.9.145-19.171,9.679-19.171,21.889,0,12.665,8.912,24.344,20.428,26.169a19.2,19.2,0,0,0,4.369.2A41.9,41.9,0,0,1,3001.646,539.873Z" transform="translate(-2975.899 -499.409)"/><path class="n" d="M2991.9,491.233c-12.779-.588-22.619,10.327-22.619,24.35s9.84,27.009,22.619,29.111c13.547,2.228,25.14-8.5,25.14-24.085S3005.446,491.855,2991.9,491.233Zm0,50.75c-11.516-1.825-20.428-13.5-20.428-26.169s8.913-22.468,20.428-21.869c12.135.631,22.463,12.457,22.463,26.383S3004.034,543.905,2991.9,541.982Z" transform="translate(-2969.28 -491.21)"/><path class="o" d="M2997.252,500.052c-11.757-.6-20.848,9.417-20.848,22.341s9.09,24.853,20.848,26.729c12.4,1.98,22.97-7.878,22.97-22.118S3009.656,500.683,2997.252,500.052Zm0,46.581c-10.592-1.632-18.821-12.359-18.821-24.027s8.229-20.663,18.821-20.066c11.114.626,20.534,11.477,20.534,24.207S3008.366,548.346,2997.252,546.634Z" transform="translate(-2974.633 -497.834)"/><path class="o" d="M3055.524,591.957a2.327,2.327,0,0,1-2.488,2.513,3.007,3.007,0,0,1-2.46-3.038,2.331,2.331,0,0,1,2.46-2.516A3,3,0,0,1,3055.524,591.957Z" transform="translate(-3030.36 -564.611)"/></g><path class="q" d="M2876.413,475.265h-.005c-.619-.08-.619-.08-1.977-5.291-.677-2.6-1.633-6.321-2.837-11.057-2.206-8.669-4.857-19.2-6.677-26.443a.972.972,0,0,1,.478-1.151.731.731,0,0,1,.925.615c5.445,21.591,9.143,36.069,10.362,40.571,1.893-2.475,7.527-9.594,25.1-31.439a.8.8,0,0,1,1.237-.03,1.121,1.121,0,0,1,.064,1.428c-10.431,12.893-25.252,31.286-26,32.416A.665.665,0,0,1,2876.413,475.265Zm.739-.561h0Zm0,0v0Z" transform="translate(-2835.351 -393.488)"/><path class="r" d="M3017.313,483.059a1.091,1.091,0,0,1-.9-.921c-.321-1.179-5.343-15.195-13.239-36.954a1.047,1.047,0,0,1,.459-1.3.844.844,0,0,1,1.137.556c13.441,36.884,13.455,37.345,13.465,37.65a.876.876,0,0,1-.89.975Zm-.892-.895Zm-.025-.2h0Zm0,0h0Z" transform="translate(-2939.203 -402.899)"/><path class="s" d="M2904.967,454.437l-34.267-1.076a.88.88,0,0,1-.739-.948.821.821,0,0,1,.739-.9l34.267.919a.978.978,0,0,1,.873,1.03A.913.913,0,0,1,2904.967,454.437Z" transform="translate(-2839.168 -408.684)"/><path class="t" d="M2836.038,500.248a.7.7,0,0,1-.136-.031l-24.2-8.153a.879.879,0,0,1-.518-.6,1.087,1.087,0,0,1,.084-.851l15.454-25.716a.643.643,0,0,1,1.039-.16,1.1,1.1,0,0,1,.158,1.305l-14.884,24.654,23.134,7.687a1.08,1.08,0,0,1,.63,1.174A.725.725,0,0,1,2836.038,500.248Z" transform="translate(-2794.973 -418.474)"/><path class="u" d="M2837.456,580.685l-.225-.114L2813.9,568.735v-5.129l24.57,4.61Zm-23.214-12.243,22.876,11.578.926-11.408-23.8-4.493Z" transform="translate(-2797.046 -492.906)"/><path class="v" d="M2901.62,588.887c0,3.548-2.369,6.1-5.255,5.714-2.846-.385-5.125-3.5-5.125-6.958s2.279-6.027,5.125-5.729C2899.251,582.216,2901.62,585.34,2901.62,588.887Z" transform="translate(-2855.156 -506.644)"/><path class="w" d="M2905.668,596.358c0,2.111-1.406,3.642-3.127,3.42s-3.081-2.084-3.081-4.164,1.374-3.614,3.081-3.425S2905.668,594.247,2905.668,596.358Z" transform="translate(-2861.332 -514.37)"/><path class="x" d="M2810.574,566.383c0,1.446-.906,2.517-2.017,2.391a2.692,2.692,0,0,1-2-2.817c0-1.431.891-2.5,2-2.393A2.681,2.681,0,0,1,2810.574,566.383Z" transform="translate(-2791.534 -492.869)"/><path class="y" d="M2854.808,425l-12.452-.23a1.163,1.163,0,0,1-.978-1.264v-1.7a1.406,1.406,0,0,1,.325-.926.85.85,0,0,1,.761-.3l12.458,1.861a1.241,1.241,0,0,1,.931,1.3A1.164,1.164,0,0,1,2854.808,425Z" transform="translate(-2817.693 -385.433)"/><path class="j" d="M2917.944,589.806s4.673,5.123,5.109,6.187-2.677.151-3.839-.832S2914.973,592.384,2917.944,589.806Z" transform="translate(-2874.274 -512.591)"/><path class="z" d="M2850.231,398.821a11.071,11.071,0,0,0,.533,6.611c1.4,3.252,6.509,6,16.661,11.374,4.952,2.62,7.121,3.766,7.649,6.112.556,2.469-1.181,4.542-2.665,6.931a38.2,38.2,0,0,0-5.331,16.527l1.613.749a34.735,34.735,0,0,0,10.329-12.585c1.461-3.053,3.445-7.2,3.152-12.378-.6-10.657-10.469-19.3-19.909-22.255A29.15,29.15,0,0,0,2850.231,398.821Z" transform="translate(-2824.154 -368.947)"/><path class="l" d="M2960.627,354.387a11.74,11.74,0,0,1-5.587-4.592c-3.324-4.783-.78-9.109-4.191-13.231-1.977-2.389-5.61-4.292-8.8-3.373-5.087,1.464-7.1,9.523-5.227,11.283,1.5,1.41,4.867-1.8,7.784-.057,2.262,1.352,1.661,4.136,3.411,6.775,1.419,2.139,3.335,4.162,11.039,4.411C2959.408,355.142,2960.271,354.849,2960.627,354.387Z" transform="translate(-2888.882 -319.612)"/><path class="aa" d="M2848.67,334.016a24.9,24.9,0,0,0-6.307,6.753c-1.3,2.075-2.935,4.69-2.026,6.4.95,1.786,3.989,1.277,8.037,1.617,11.409.958,16.9,7.484,19.9,4.887.106-.093.363-.232.408-.49.154-.871-2.2-1.4-2.561-2.673-.319-1.13,1.072-2.341,2.492-3.736a40.248,40.248,0,0,0,7.024-8.949c.81-1.551,2.071-3.966,1.273-6.116-1.475-3.977-9.2-4.694-13.692-4.295C2856.733,327.988,2852.28,331.317,2848.67,334.016Z" transform="translate(-2816.713 -315.374)"/><path class="ab" d="M2939.363,429.668A15.406,15.406,0,0,1,2933,428.3l-2.809-1.278a.813.813,0,0,1,.673-1.479l2.809,1.278a13.776,13.776,0,0,0,8.525.929l15.879-3.385a.172.172,0,0,0,.032-.326l-3.385-1.446a.813.813,0,0,1,.638-1.495l3.385,1.446a1.8,1.8,0,0,1-.331,3.41l-15.879,3.385A15.2,15.2,0,0,1,2939.363,429.668Z" transform="translate(-2884.061 -385.785)"/><path class="ac" d="M3030.723,418.156s.093-1.236,1.588-.936,1.463,2.063,1.463,2.063-1.649-1.149-2.1-.233a.812.812,0,0,0,.57,1.184S3030.479,421.232,3030.723,418.156Z" transform="translate(-2959.935 -382.887)"/><path class="ad" d="M2937.07,436.467a5.776,5.776,0,0,0,3.316,3.643c2.522.847,2.528.542,2.528.542a17.984,17.984,0,0,1-1.264-1.923c-.1-.331.938.106.938.106a2.2,2.2,0,0,0-.938-1.677,20.456,20.456,0,0,0-3.781-1.509Z" transform="translate(-2889.588 -396.769)"/><path class="ae" d="M2951.742,317.289l-2.922,3.405c.866,2.272,2.089,2.282,3.4,1.746l1.161-2.658Z" transform="translate(-2898.417 -307.842)"/><path class="af" d="M2954.681,308.544a3.263,3.263,0,0,0,3.352,1.822c2.1-.325,1.93-5.6.494-6.485a2.8,2.8,0,0,0-2.158-.128,3.1,3.1,0,0,0-1.633,3.228c-.465-.241-.925-.2-1.083.026-.2.283.135.788.21.9A1.693,1.693,0,0,0,2954.681,308.544Z" transform="translate(-2902.002 -297.554)"/><path class="ag" d="M2852.693,367.2c-5.013,1.178-6.245,8.178-8.952,7.709-.732-.127-1.477-.786-2.147-2.413-.868,1.587-1.477,3.224-.841,4.418.95,1.786,3.989,1.277,8.037,1.617,11.409.958,16.9,7.484,19.9,4.887.107-.093.363-.232.409-.49.154-.871-2.2-1.4-2.561-2.673-.318-1.13,1.073-2.341,2.492-3.736a48.659,48.659,0,0,0,4.816-5.485,11.83,11.83,0,0,1-5.484,1.637C2861.345,372.9,2858.073,365.94,2852.693,367.2Z" transform="translate(-2817.025 -345.229)"/><path class="ah" d="M2895.927,351.981s-2.986,16.25,10.009,20.78l1.174-.651s-5.877-11.827-3.619-19.529C2903.491,352.581,2899.952,349.142,2895.927,351.981Z" transform="translate(-2858.454 -333.063)"/><path class="n" d="M2946.683,298.551a13.695,13.695,0,0,0,6.52-.525,2.651,2.651,0,0,0,.462-2.3c-.679-1.882-4.777-2.468-7.239-.944-.248.153-2.044,1.265-1.751,2.435A2.29,2.29,0,0,0,2946.683,298.551Z" transform="translate(-2895.278 -290.277)"/><path class="ai" d="M2947.45,298.829a7.19,7.19,0,0,1,3.337-1.252c.787-.032.4.947-.995.995A14.308,14.308,0,0,0,2947.45,298.829Z" transform="translate(-2897.387 -293.031)"/><path class="aj" d="M2946.464,303.457a6.14,6.14,0,0,1,3.256.021c.664.247-.037,1.013-1.213.566A11.671,11.671,0,0,0,2946.464,303.457Z" transform="translate(-2896.646 -297.283)"/></g><g transform="translate(2736.023 296.828)"><path class="i" d="M3074.189,914.81l-5.71,15.926h2.855Z" transform="translate(-3005.719 -791.041)"/><path class="j" d="M3061.159,949.258s-1.8,4.581-.358,6,4.2,3.774,6.236,4.142-1.627-5.606-3.753-7.873Z" transform="translate(-2999.531 -816.923)"/><path class="ak" d="M3070.067,593.1a64.162,64.162,0,0,1,1.052,27.881c-2.325,12.087-7.354,17.38-12.484,31.444a130.7,130.7,0,0,0-7.156,31.508l-3.2.339a42.574,42.574,0,0,1-3.463-21.908c1.161-9.352,4.786-9.411,7.038-19.055,2.976-12.747-2.206-17.569-1.427-38.636.175-4.717.584-8.533.877-10.872Z" transform="translate(-2987.727 -549.334)"/><g transform="translate(0 70.033)"><path class="al" d="M2852.342,782.545c-14.206-2.252-25.268-18.693-25.268-36.812s11.063-32.232,25.268-31.493c14.865.773,27.43,17.371,27.43,37.039S2867.207,784.9,2852.342,782.545Z" transform="translate(-2824.346 -710.36)"/><path class="am" d="M2856.184,767.838c.173-15.264,5.82-23.255,2.875-36.72a40.242,40.242,0,0,0-8.263-16.862c-13.451.317-23.722,14.041-23.722,31.51,0,18.119,11.063,34.56,25.268,36.812a20.343,20.343,0,0,0,5.365.145A67.994,67.994,0,0,1,2856.184,767.838Z" transform="translate(-2824.346 -710.393)"/><path class="an" d="M2844.1,698.745c-15.77-.725-28,14.987-28,35.062s12.227,38.361,28,40.955c16.586,2.728,30.675-12.785,30.675-34.78S2860.685,699.508,2844.1,698.745Zm0,72.161c-14.206-2.251-25.268-18.693-25.268-36.812s11.062-32.232,25.268-31.493c14.865.773,27.43,17.371,27.43,37.039S2858.963,773.261,2844.1,770.906Z" transform="translate(-2816.102 -698.721)"/><path class="o" d="M2850.766,711.288c-14.5-.738-25.79,13.68-25.79,32.173s11.286,35.286,25.79,37.6c15.192,2.425,28.046-11.826,28.046-31.935S2865.958,712.061,2850.766,711.288Zm0,66.234c-13.063-2.013-23.269-17.112-23.269-33.8s10.206-29.635,23.269-28.9c13.618.768,25.089,16,25.089,33.988S2864.384,779.621,2850.766,777.523Z" transform="translate(-2822.769 -708.143)"/><path class="o" d="M2922.882,841.9c0,2.191-1.371,3.813-3.055,3.624s-3.027-2.1-3.027-4.269,1.352-3.795,3.027-3.627S2922.882,839.706,2922.882,841.9Z" transform="translate(-2891.759 -803.075)"/></g><g transform="translate(91.26 74.64)"><path class="ao" d="M3231.176,814.2c-18.938-3-33.6-22.209-33.6-43.037s14.658-36.95,33.6-35.966c19.958,1.038,36.942,20.487,36.942,43.389S3251.134,817.366,3231.176,814.2Z" transform="translate(-3193.977 -730.704)"/><path class="ap" d="M3236.32,797.277c.233-17.668,7.812-26.817,3.856-42.47a44.9,44.9,0,0,0-11.068-19.613c-17.921.239-31.529,15.918-31.529,36,0,20.828,14.658,40.035,33.6,43.037a31.569,31.569,0,0,0,7.187.322A68.905,68.905,0,0,1,3236.32,797.277Z" transform="translate(-3193.977 -730.731)"/><path class="aq" d="M3220.29,717.283c-21.016-.967-37.2,16.985-37.2,40.046s16.183,44.419,37.2,47.876c22.279,3.664,41.346-13.978,41.346-39.61S3242.569,718.308,3220.29,717.283Zm0,83.462c-18.938-3-33.6-22.209-33.6-43.037s14.657-36.95,33.6-35.966c19.958,1.038,36.942,20.487,36.942,43.389S3240.248,803.909,3220.29,800.746Z" transform="translate(-3183.091 -717.246)"/><path class="o" d="M3229.094,731.788c-19.335-.983-34.285,15.487-34.285,36.742s14.95,40.873,34.285,43.959c20.4,3.256,37.777-12.955,37.777-36.375S3249.492,732.825,3229.094,731.788Zm0,76.608c-17.42-2.685-30.952-20.326-30.952-39.515s13.532-33.982,30.952-33c18.278,1.03,33.77,18.875,33.77,39.811S3247.372,811.212,3229.094,808.4Z" transform="translate(-3191.894 -728.14)"/><path class="o" d="M3324.927,882.935c0,2.536-1.837,4.386-4.091,4.133a4.945,4.945,0,0,1-4.047-5c0-2.508,1.806-4.361,4.047-4.138A4.933,4.933,0,0,1,3324.927,882.935Z" transform="translate(-3283.542 -837.962)"/></g><path class="ar" d="M3030.363,691.024h-.009c-1.017-.131-1.017-.131-3.251-8.7-1.113-4.27-2.685-10.4-4.667-18.185-3.627-14.257-7.987-31.574-10.98-43.487a1.6,1.6,0,0,1,.785-1.893,1.2,1.2,0,0,1,1.521,1.012c8.956,35.509,15.037,59.318,17.042,66.724,3.113-4.071,12.379-15.779,41.284-51.7a1.308,1.308,0,0,1,2.034-.05,1.844,1.844,0,0,1,.106,2.348c-17.155,21.2-41.53,51.453-42.766,53.312A1.093,1.093,0,0,1,3030.363,691.024Zm1.215-.923h0Zm0,0v0Z" transform="translate(-2962.834 -568.559)"/><path class="as" d="M3262.085,703.842a1.8,1.8,0,0,1-1.479-1.515c-.527-1.939-8.786-24.989-21.772-60.774a1.721,1.721,0,0,1,.754-2.142,1.388,1.388,0,0,1,1.871.914c22.105,60.658,22.128,61.417,22.144,61.919a1.441,1.441,0,0,1-1.464,1.6Zm-1.468-1.472Zm-.041-.323h0Zm0,0v0Z" transform="translate(-3133.627 -584.036)"/><path class="at" d="M3077.323,656.771,3020.969,655a1.447,1.447,0,0,1-1.215-1.559,1.35,1.35,0,0,1,1.215-1.488l56.354,1.511a1.609,1.609,0,0,1,1.435,1.694A1.5,1.5,0,0,1,3077.323,656.771Z" transform="translate(-2969.111 -593.55)"/><path class="au" d="M2963.963,732.11a1.134,1.134,0,0,1-.224-.05l-39.795-13.408a1.446,1.446,0,0,1-.851-.99,1.79,1.79,0,0,1,.139-1.4l25.415-42.293a1.058,1.058,0,0,1,1.708-.264,1.807,1.807,0,0,1,.26,2.147L2926.137,716.4l38.047,12.642a1.777,1.777,0,0,1,1.036,1.931A1.192,1.192,0,0,1,2963.963,732.11Z" transform="translate(-2896.427 -609.649)"/><path class="u" d="M2966.295,864.4l-.371-.187-38.373-19.465v-8.435l40.408,7.581Zm-38.178-20.135,37.622,19.04,1.522-18.762-39.144-7.389Z" transform="translate(-2899.837 -732.06)"/><path class="av" d="M3071.819,877.887c0,5.835-3.9,10.038-8.642,9.4-4.68-.633-8.428-5.752-8.428-11.443s3.748-9.912,8.428-9.422C3067.923,866.915,3071.819,872.052,3071.819,877.887Z" transform="translate(-2995.404 -754.654)"/><path class="w" d="M3078.477,890.173c0,3.472-2.312,5.989-5.143,5.624-2.808-.362-5.066-3.426-5.066-6.847s2.259-5.944,5.066-5.633C3076.165,883.63,3078.477,886.7,3078.477,890.173Z" transform="translate(-3005.561 -767.36)"/><path class="x" d="M2922.085,840.876c0,2.378-1.489,4.139-3.317,3.933s-3.283-2.278-3.283-4.632,1.466-4.117,3.283-3.936S2922.085,838.5,2922.085,840.876Z" transform="translate(-2890.771 -732)"/><path class="y" d="M2994.831,608.352l-20.478-.379a1.913,1.913,0,0,1-1.609-2.078v-2.8a2.315,2.315,0,0,1,.536-1.522,1.4,1.4,0,0,1,1.252-.5l20.489,3.061a2.042,2.042,0,0,1,1.531,2.13A1.914,1.914,0,0,1,2994.831,608.352Z" transform="translate(-2933.791 -555.31)"/><path class="j" d="M3098.665,879.4s7.685,8.426,8.4,10.175-4.4.248-6.314-1.369S3093.778,883.636,3098.665,879.4Z" transform="translate(-3026.846 -764.434)"/><path class="aw" d="M2987.3,565.3a18.2,18.2,0,0,0,.876,10.872c2.309,5.348,10.7,9.874,27.4,18.706,8.144,4.308,11.711,6.194,12.58,10.052.915,4.061-1.942,7.469-4.384,11.4-3.481,5.6-7.4,14.236-8.768,27.18l2.653,1.232a57.117,57.117,0,0,0,16.986-20.7c2.4-5.021,5.666-11.835,5.184-20.358-.991-17.526-17.217-31.739-32.742-36.6A47.944,47.944,0,0,0,2987.3,565.3Z" transform="translate(-2944.419 -528.199)"/><path class="l" d="M3168.86,492.229a19.311,19.311,0,0,1-9.188-7.551c-5.467-7.867-1.282-14.981-6.893-21.76-3.252-3.929-9.226-7.059-14.48-5.547-8.367,2.408-11.669,15.661-8.6,18.557,2.461,2.32,8-2.961,12.8-.094,3.721,2.224,2.732,6.8,5.61,11.142,2.334,3.518,5.484,6.844,18.156,7.255C3166.856,493.469,3168.276,492.988,3168.86,492.229Z" transform="translate(-3050.87 -447.063)"/><path class="l" d="M2984.737,458.727a40.945,40.945,0,0,0-10.373,11.106c-2.136,3.413-4.827,7.712-3.332,10.521,1.563,2.937,6.561,2.1,13.218,2.659,18.764,1.575,27.791,12.308,32.725,8.037,1.735-1.5.308-2.56,2.251-8.385,2.669-8,6.358-8.993,9.858-17.679,2.022-5.018,3.033-7.527,2.094-10.058-2.426-6.54-15.138-7.72-22.519-7.064C2998,448.813,2990.673,454.288,2984.737,458.727Z" transform="translate(-2932.18 -440.092)"/><path class="l" d="M3010.991,507.654c-8.268-.614-10.863-5.761-17.623-4.471-8.845,1.687-11.556,11.862-16.9,10.85a5.708,5.708,0,0,1-3.44-2.423c-1.724,2.926-3.186,6.105-2,8.341,1.563,2.937,6.561,2.1,13.218,2.659,18.764,1.575,27.791,12.308,32.725,8.037,1.735-1.5.308-2.56,2.251-8.385,2.669-8,6.358-8.993,9.858-17.679.656-1.628,1.2-2.989,1.615-4.176C3022.224,506.953,3015.589,508,3010.991,507.654Z" transform="translate(-2932.18 -479.689)"/><path class="ax" d="M3147.192,426.191s-.463,6.63-1.254,8.008-3.776-.973-4.75-3.315a4.743,4.743,0,0,1,.736-5.154C3142.779,424.859,3146.541,425.484,3147.192,426.191Z" transform="translate(-3060.023 -423.262)"/><path class="n" d="M3115.637,422.161l12.046,1.384a4.462,4.462,0,0,0,1.561-3.673c-.3-2.128-4.646-3.288-7.913-2.565S3112.223,420.965,3115.637,422.161Z" transform="translate(-3040.372 -417.093)"/><path class="ay" d="M3125.37,428.132c-1.507-.811-7.441.171-10.66.731-.261.534-.044,1.019.933,1.361l.41.047A35.931,35.931,0,0,1,3125.37,428.132Z" transform="translate(-3040.378 -425.155)"/><path class="ab" d="M3133.889,616.035a25.337,25.337,0,0,1-10.468-2.256l-4.62-2.1a1.336,1.336,0,0,1,1.107-2.432l4.62,2.1a22.659,22.659,0,0,0,14.02,1.528l26.115-5.567a.282.282,0,0,0,.052-.535l-5.568-2.378a1.337,1.337,0,0,1,1.05-2.458l5.567,2.378a2.955,2.955,0,0,1-.544,5.608l-26.115,5.567A25.034,25.034,0,0,1,3133.889,616.035Z" transform="translate(-3042.94 -555.89)"/><path class="az" d="M3284.14,597.1s.154-2.032,2.612-1.54,2.406,3.393,2.406,3.393-2.712-1.889-3.446-.384a1.335,1.335,0,0,0,.936,1.947S3283.739,602.161,3284.14,597.1Z" transform="translate(-3167.723 -551.124)"/><path class="ba" d="M3062.455,488.272s-4.911,26.724,16.46,34.175l1.931-1.072s-9.666-19.451-5.952-32.117C3074.895,489.258,3069.075,483.6,3062.455,488.272Z" transform="translate(-3000.828 -469.184)"/><path class="bb" d="M3130.119,627.216s1.307,4.6,5.454,5.991,4.157.892,4.157.892a29.567,29.567,0,0,1-2.079-3.162c-.167-.545,1.543.174,1.543.174a3.613,3.613,0,0,0-1.543-2.758c-1.542-1.075-6.217-2.482-6.217-2.482Z" transform="translate(-3052.031 -573.953)"/></g></g></svg>