<svg id="Layer_1" data-name="Layer 1" xmlns="http://www.w3.org/2000/svg" width="20" height="21" viewBox="0 0 20 21"><defs><style>.cls-1{isolation:isolate;}.cls-2{fill:#282f39;}</style></defs><g class="cls-1"><g class="cls-1"><path class="cls-2" d="M4.1016,13.8672a2.6405,2.6405,0,0,1,0-3.75,2.6026,2.6026,0,0,1,1.914-.7813,2.5922,2.5922,0,0,1,1.875.7618,2.54,2.54,0,0,1,.7813,1.8945,2.5391,2.5391,0,0,1-.7813,1.8945,2.5925,2.5925,0,0,1-1.875.7617A2.5987,2.5987,0,0,1,4.1016,13.8672Zm5.7226-3.6914a3.8471,3.8471,0,0,1-1.1523-2.832A3.9147,3.9147,0,0,1,9.8242,4.4922,3.8154,3.8154,0,0,1,12.6562,3.32,4.0013,4.0013,0,0,1,16.68,7.3438a3.8154,3.8154,0,0,1-1.1719,2.832,3.9147,3.9147,0,0,1-2.8516,1.1523A3.8471,3.8471,0,0,1,9.8242,10.1758Zm1.3281,6.0156A1.68,1.68,0,0,1,12.3438,13.32a1.5585,1.5585,0,0,1,1.1718.4883,1.7483,1.7483,0,0,1,0,2.3828,1.5548,1.5548,0,0,1-1.1718.4883A1.618,1.618,0,0,1,11.1523,16.1914Z"/></g></g></svg>