<svg id="Layer_1" data-name="Layer 1" xmlns="http://www.w3.org/2000/svg" width="20" height="21" viewBox="0 0 20 21"><defs><style>.cls-1{isolation:isolate;}.cls-2{fill:#282f39;}</style></defs><g class="cls-1"><g class="cls-1"><path class="cls-2" d="M17.4609,9.18H19.18V10.82H17.4609a7.2455,7.2455,0,0,1-2.1484,4.4922A7.2425,7.2425,0,0,1,10.82,17.4609V19.18H9.18V17.4609a7.24,7.24,0,0,1-4.4922-2.1484A7.24,7.24,0,0,1,2.5391,10.82H.82V9.18H2.5391A7.2425,7.2425,0,0,1,4.6875,4.6875,7.2455,7.2455,0,0,1,9.18,2.5391V.82H10.82V2.5391a7.2477,7.2477,0,0,1,4.4922,2.1484A7.2477,7.2477,0,0,1,17.4609,9.18ZM5.8789,14.1211A5.6108,5.6108,0,0,0,10,15.82a5.6122,5.6122,0,0,0,4.1211-1.6992A5.6108,5.6108,0,0,0,15.82,10a5.6122,5.6122,0,0,0-1.6992-4.1211A5.6122,5.6122,0,0,0,10,4.18,5.6108,5.6108,0,0,0,5.8789,5.8789,5.6122,5.6122,0,0,0,4.18,10,5.6108,5.6108,0,0,0,5.8789,14.1211ZM7.6562,7.6562a3.3011,3.3011,0,0,1,4.6876,0,3.3011,3.3011,0,0,1,0,4.6876,3.3011,3.3011,0,0,1-4.6876,0,3.3011,3.3011,0,0,1,0-4.6876Z"/></g></g></svg>