<?xml version="1.0" standalone="no"?>
<!DOCTYPE svg PUBLIC "-//W3C//DTD SVG 20010904//EN"
 "http://www.w3.org/TR/2001/REC-SVG-20010904/DTD/svg10.dtd">
<svg version="1.0" xmlns="http://www.w3.org/2000/svg"
 width="1024.000000pt" height="1024.000000pt" viewBox="0 0 1024.000000 1024.000000"
 preserveAspectRatio="xMidYMid meet">

<g transform="translate(0.000000,1024.000000) scale(0.100000,-0.100000)"
fill="#000000" stroke="none">
<path d="M5935 9730 c-161 -24 -329 -99 -421 -187 -76 -73 -119 -148 -146
-255 -19 -77 -20 -100 -15 -323 4 -132 11 -292 17 -355 18 -206 50 -761 65
-1145 3 -71 10 -233 15 -360 75 -1746 72 -3420 -5 -3995 -3 -19 -14 -105 -25
-190 -12 -84 -32 -204 -46 -265 -14 -60 -29 -128 -34 -150 -5 -22 -11 -49 -14
-60 -2 -11 -7 -29 -11 -40 -6 -16 -5 -17 4 -5 9 13 14 13 42 -2 17 -10 39 -18
50 -18 10 0 19 -4 19 -10 0 -15 80 -91 89 -85 5 2 8 -1 7 -8 0 -7 18 -30 42
-51 35 -32 45 -37 52 -26 10 17 20 10 24 -17 2 -10 10 -17 18 -15 8 1 20 -9
26 -22 10 -22 9 -24 -6 -19 -13 4 -11 0 6 -18 19 -20 24 -22 32 -9 8 12 10 12
11 -5 2 -47 30 -105 51 -105 11 0 2 17 -25 48 -15 16 -17 22 -6 22 25 -1 45
-24 52 -58 4 -21 3 -31 -3 -27 -6 3 -10 -3 -10 -14 0 -11 5 -23 10 -26 6 -3
10 2 10 11 0 16 14 12 16 -4 3 -26 18 -62 25 -62 5 0 9 -5 9 -11 0 -7 15 -26
33 -43 18 -17 41 -50 51 -73 10 -23 30 -50 45 -60 49 -34 161 -154 161 -173 0
-5 6 -10 13 -10 13 0 42 -26 80 -73 l23 -28 42 50 c23 27 42 54 42 60 0 5 6
14 13 18 13 8 56 72 124 183 40 66 213 410 213 424 0 4 12 33 26 64 57 124
200 524 240 670 9 31 19 71 24 87 4 17 22 77 38 135 28 99 112 432 132 523 5
23 21 92 35 152 54 233 133 627 170 855 13 80 30 186 39 235 39 237 58 371 85
620 53 474 57 526 91 1110 18 315 -2 1498 -30 1765 -43 412 -173 702 -430 960
-210 211 -425 326 -739 395 -94 21 -138 25 -255 24 -78 -1 -163 -5 -191 -9z"/>
<path d="M2966 6523 c-58 -17 -146 -75 -197 -130 -171 -181 -276 -569 -309
-1133 -26 -468 -35 -1399 -13 -1421 9 -9 10 -6 6 12 -6 23 -6 23 12 6 10 -10
26 -16 36 -14 10 3 20 0 22 -6 2 -7 44 -6 141 3 103 10 140 10 148 2 17 -17
28 -15 29 6 0 14 2 14 9 -3 6 -17 8 -15 13 15 4 19 8 276 11 570 6 628 21 816
73 925 24 49 63 49 111 -2 88 -94 155 -329 253 -893 11 -63 25 -130 30 -149
10 -30 14 -33 43 -26 17 3 54 10 81 16 28 5 79 15 115 23 36 8 114 24 175 36
60 12 117 25 126 30 10 6 20 5 26 -1 7 -7 8 4 1 38 -17 83 -59 274 -85 383
-13 58 -35 150 -48 205 -13 55 -37 161 -54 235 -191 829 -240 980 -366 1131
-116 140 -244 187 -389 142z"/>
<path d="M9090 5061 c-76 -14 -187 -57 -263 -102 -89 -52 -235 -196 -305 -301
-58 -86 -249 -463 -312 -614 -22 -55 -47 -112 -55 -129 -19 -40 -47 -114 -100
-260 -176 -491 -278 -920 -349 -1455 -30 -224 -41 -410 -41 -675 0 -225 12
-323 57 -468 l31 -99 51 6 c32 3 42 2 26 -3 -23 -7 -22 -8 15 -15 22 -3 60 -7
85 -7 97 0 115 -1 95 -6 -11 -3 -24 -9 -30 -15 -7 -6 0 -7 18 -3 15 4 27 3 27
-2 0 -14 75 -37 95 -29 9 3 13 2 10 -4 -3 -6 -15 -10 -25 -10 -10 0 -22 -5
-25 -10 -3 -6 4 -10 15 -10 25 0 80 30 80 43 0 5 7 4 15 -3 13 -11 13 -14 -2
-26 -17 -13 -17 -13 1 -14 11 0 28 7 38 17 10 9 18 11 18 6 0 -14 38 -24 46
-12 7 12 24 1 24 -15 0 -8 -10 -17 -22 -21 -20 -6 -21 -8 -5 -12 11 -3 27 5
40 21 25 29 42 34 33 11 -4 -12 6 -15 59 -15 l65 0 0 -29 c0 -16 -3 -37 -7
-47 -6 -16 -7 -16 -14 2 -7 17 -8 17 -8 -3 -1 -13 -5 -23 -11 -23 -5 0 -10 -5
-10 -11 0 -8 4 -8 14 0 12 10 15 8 18 -11 2 -15 11 -24 24 -26 16 -2 23 -12
27 -35 2 -18 1 -34 -4 -35 -13 -5 0 -22 16 -22 7 0 16 8 18 17 3 12 5 8 6 -9
0 -15 6 -30 11 -33 16 -10 71 5 63 18 -4 6 0 8 10 4 9 -3 19 -2 21 2 3 5 19
11 36 15 21 4 29 10 24 17 -4 7 -3 9 4 5 14 -9 103 35 95 47 -3 6 -2 7 4 4 14
-9 75 31 67 45 -4 7 -3 8 5 4 12 -8 49 12 85 46 11 10 24 18 29 18 5 0 7 9 4
21 -4 15 -2 18 7 10 9 -8 29 5 77 49 35 33 60 60 54 61 -5 0 1 5 14 10 13 5
21 15 18 23 -3 8 1 13 11 12 9 0 18 7 20 18 3 11 0 16 -7 11 -6 -3 -8 -11 -5
-17 5 -7 2 -8 -5 -4 -9 6 -9 12 2 24 8 10 17 24 21 32 3 8 4 5 2 -8 -3 -15 0
-22 7 -19 7 2 11 12 10 21 0 10 2 15 5 11 9 -9 82 67 82 87 0 10 7 18 15 18 8
0 15 3 15 8 0 13 -40 43 -50 37 -6 -3 -7 1 -4 9 8 20 20 20 27 2 3 -8 14 -13
24 -11 10 2 22 4 26 4 5 1 5 6 2 11 -3 6 -1 10 6 10 6 0 9 8 6 20 -3 11 -1 18
3 15 5 -3 11 -1 14 4 4 5 2 12 -4 16 -5 3 -10 11 -10 17 0 7 6 6 15 -2 12 -10
15 -9 15 6 -1 23 -24 56 -33 47 -4 -3 -7 -1 -7 5 0 17 26 15 44 -3 13 -14 15
-10 21 29 4 24 4 57 1 73 -9 40 -44 95 -56 88 -6 -3 -10 -1 -10 4 0 6 -12 11
-27 11 -20 0 -24 3 -14 9 9 6 4 10 -17 13 -19 3 -29 1 -25 -6 4 -5 0 -7 -9 -3
-9 3 -21 0 -28 -6 -10 -9 -11 -9 -6 1 5 8 0 12 -13 12 -11 0 -25 -9 -31 -19
-5 -11 -18 -18 -27 -17 -18 3 -103 -51 -103 -65 0 -4 5 -9 12 -11 9 -3 9 -6 0
-12 -7 -4 -12 -2 -12 3 0 6 -5 11 -11 11 -16 0 -139 -122 -139 -138 0 -7 -4
-11 -8 -8 -10 6 -43 -29 -36 -38 2 -3 1 -4 -3 -1 -3 3 -25 -12 -48 -33 -64
-56 -95 -81 -95 -76 0 2 -17 -6 -37 -19 -43 -27 -75 -41 -85 -39 -5 1 -8 -1
-8 -6 0 -11 -92 -6 -125 7 -40 16 -92 67 -116 114 -48 93 -42 197 23 392 l34
100 79 44 c144 79 285 180 362 260 31 32 42 52 26 50 -20 -3 -26 2 -13 11 8 5
10 10 4 10 -14 0 -6 289 9 308 5 7 7 15 3 19 -3 3 -6 0 -6 -8 0 -10 -2 -11 -8
-2 -6 9 -25 1 -67 -28 -149 -101 -332 -162 -336 -111 -6 73 30 297 75 473 48
183 176 552 225 647 5 9 33 71 61 137 84 192 225 474 278 555 140 216 290 324
421 305 25 -4 74 -22 109 -41 l62 -35 30 21 c17 12 30 18 30 15 0 -4 18 9 39
28 22 19 50 41 63 48 12 6 37 24 54 39 18 15 57 44 88 65 31 20 59 41 62 46
21 35 -147 222 -276 307 -76 51 -114 71 -242 126 -117 51 -363 80 -488 57z
m186 -3536 c-3 -9 0 -15 8 -15 7 0 21 -16 32 -35 10 -19 22 -35 26 -35 5 0 8
-12 8 -27 0 -26 0 -26 -27 10 -16 20 -34 35 -40 34 -7 -1 -24 12 -37 28 -24
29 -25 30 -40 10 -15 -20 -15 -20 -10 2 3 11 14 23 25 26 10 3 17 1 13 -4 -3
-5 0 -9 5 -9 6 0 11 7 11 15 0 8 7 15 16 15 10 0 14 -6 10 -15z m101 -1 c-3
-3 -12 -4 -19 -1 -8 3 -5 6 6 6 11 1 17 -2 13 -5z m47 -2 c2 -4 -5 -9 -17 -9
-17 -2 -19 0 -7 7 18 12 18 12 24 2z m-273 -26 c-9 -11 -8 -17 4 -29 18 -18
19 -27 4 -27 -7 0 -18 8 -25 18 -10 14 -10 20 3 35 19 20 31 23 14 3z m256
-48 c-3 -8 -6 -5 -6 6 -1 11 2 17 5 13 3 -3 4 -12 1 -19z m27 -23 c-4 -8 -8
-15 -10 -15 -2 0 -4 7 -4 15 0 8 4 15 10 15 5 0 7 -7 4 -15z m-353 -8 c-7 -7
-14 -8 -21 -1 -6 6 -2 10 12 11 16 2 18 -1 9 -10z m59 3 c0 -5 -4 -10 -10 -10
-5 0 -10 5 -10 10 0 6 5 10 10 10 6 0 10 -4 10 -10z m54 -6 c9 -24 7 -27 -9
-10 -17 17 -19 26 -6 26 5 0 12 -7 15 -16z m263 -16 c-3 -7 -5 -2 -5 12 0 14
2 19 5 13 2 -7 2 -19 0 -25z m-137 2 c0 -5 -7 -7 -15 -4 -8 4 -15 8 -15 10 0
2 7 4 15 4 8 0 15 -4 15 -10z m-156 -23 c4 4 4 0 0 -10 -7 -20 -13 -21 -36 -3
-28 21 -23 39 5 21 13 -8 27 -12 31 -8z m36 -28 c0 -7 8 -19 19 -28 10 -9 20
-25 23 -36 2 -11 10 -19 20 -17 20 3 41 -22 36 -44 -2 -13 -13 -7 -49 27 -26
24 -49 54 -53 67 -4 12 -12 22 -17 22 -6 0 -7 5 -4 10 8 14 25 13 25 -1z
m-190 -31 c0 -5 -7 -3 -15 6 -8 8 -15 18 -15 22 0 3 7 1 15 -6 8 -7 15 -17 15
-22z m47 -28 c14 -22 53 -45 53 -32 0 6 -9 12 -20 15 -11 3 -20 12 -20 21 0
12 9 8 35 -15 19 -18 35 -37 35 -43 0 -6 -4 -6 -8 2 -5 7 -16 10 -26 6 -18 -7
-50 17 -67 48 -13 24 3 23 18 -2z m143 -96 c0 -12 -7 -24 -15 -28 -8 -3 -14
-2 -13 2 1 4 -3 17 -10 29 -12 21 -11 23 13 21 18 -2 25 -8 25 -24z m47 -36
c-2 -7 0 -21 5 -31 6 -12 5 -19 -7 -23 -21 -9 -33 5 -15 17 13 8 13 10 0 19
-11 7 -16 5 -18 -5 -2 -8 -8 -15 -13 -15 -4 0 -3 11 3 25 11 25 54 37 45 13z
m78 -4 c-9 -9 -19 -13 -23 -10 -3 4 0 11 8 16 24 15 33 11 15 -6z m-24 -64
c-37 -35 -37 -35 -44 -16 -4 9 5 21 20 31 14 10 22 12 19 6 -4 -6 -2 -11 4
-11 6 0 13 7 17 15 3 9 8 13 11 10 3 -3 -9 -19 -27 -35z m-81 -10 c0 -5 -4
-10 -10 -10 -5 0 -10 5 -10 10 0 6 5 10 10 10 6 0 10 -4 10 -10z m-43 -88 c-9
-2 -15 -8 -12 -13 3 -5 -1 -6 -10 -3 -14 6 -14 8 2 19 10 7 22 10 28 7 5 -4 2
-8 -8 -10z m-1277 -16 c0 -3 -4 -8 -10 -11 -5 -3 -10 -1 -10 4 0 6 5 11 10 11
6 0 10 -2 10 -4z m1237 -28 c-3 -8 -6 -5 -6 6 -1 11 2 17 5 13 3 -3 4 -12 1
-19z m7 -33 c-4 -8 -11 -15 -16 -15 -6 0 -5 6 2 15 7 8 14 15 16 15 2 0 1 -7
-2 -15z m-594 -89 c0 -3 -4 -8 -10 -11 -5 -3 -10 -1 -10 4 0 6 5 11 10 11 6 0
10 -2 10 -4z m78 -238 c-2 -6 -15 -13 -29 -15 -18 -2 -20 -1 -9 6 8 5 18 7 22
5 4 -3 8 0 8 5 0 6 3 11 6 11 3 0 4 -5 2 -12z"/>
<path d="M684 4595 c-202 -45 -395 -149 -521 -283 -52 -55 -109 -159 -128
-232 -9 -36 -20 -79 -25 -96 -13 -39 -13 -146 -1 -193 5 -20 15 -63 21 -96 11
-57 62 -228 80 -270 5 -11 28 -72 50 -135 23 -63 47 -128 55 -145 7 -16 31
-73 53 -125 125 -298 256 -553 440 -860 203 -338 688 -1003 724 -993 4 2 8 -3
8 -10 1 -6 10 -23 21 -36 17 -21 22 -22 30 -10 9 12 10 12 8 -1 -3 -29 1 -40
16 -40 8 0 14 -3 13 -8 -5 -12 26 -49 47 -56 11 -3 28 -20 37 -37 11 -18 22
-27 29 -23 7 4 9 3 6 -3 -7 -10 21 -42 36 -41 5 0 12 -4 15 -8 4 -4 1 -4 -5 0
-22 12 -14 1 19 -30 18 -16 26 -20 18 -9 -8 11 1 5 20 -14 58 -56 139 -112
153 -105 7 4 8 3 4 -2 -4 -4 18 -20 50 -35 46 -21 74 -26 138 -27 90 -2 115 3
115 23 0 7 -8 16 -17 18 -10 2 -7 2 7 0 54 -8 63 -8 67 5 3 6 -2 12 -10 12 -9
0 -18 -6 -20 -12 -3 -7 -6 4 -6 25 -1 33 -4 37 -26 37 -14 0 -25 -4 -25 -10 0
-22 -17 -8 -29 25 -11 32 -41 50 -41 25 0 -22 -16 -8 -25 23 -9 28 -15 32 -48
35 -22 2 -41 10 -44 18 -3 8 -9 14 -14 14 -4 0 -6 -8 -2 -17 6 -16 4 -16 -15
1 -12 11 -22 26 -22 34 0 11 -8 13 -35 9 -34 -6 -35 -5 -35 28 0 25 -4 33 -14
29 -8 -3 -17 -1 -21 5 -11 19 -32 12 -39 -11 -4 -17 -8 -20 -15 -10 -10 17
-77 6 -85 -14 -3 -8 -11 -14 -17 -14 -8 0 -10 14 -5 47 4 27 9 62 11 78 2 17
8 46 12 65 6 25 5 43 -5 63 -8 15 -11 35 -7 45 7 14 9 13 16 -8 4 -15 5 2 2
39 l-6 64 27 -5 c34 -7 35 19 1 56 -13 14 -22 26 -19 26 2 0 -18 29 -46 65
-27 36 -54 74 -59 83 -9 19 -5 59 8 76 15 19 77 168 109 261 58 172 110 382
132 530 28 200 32 263 33 475 0 169 -5 269 -17 355 -89 623 -368 1122 -718
1284 -36 17 -75 31 -85 31 -10 0 -36 7 -58 15 -51 18 -237 18 -321 0z m449
-408 c79 -47 124 -109 206 -287 66 -145 124 -397 146 -637 13 -136 13 -176 0
-307 -19 -188 -29 -256 -61 -376 -42 -163 -64 -221 -81 -218 -36 7 -271 474
-393 778 -136 339 -260 746 -260 852 0 77 35 135 105 171 123 63 255 72 338
24z m544 -2899 c-3 -8 -6 -5 -6 6 -1 11 2 17 5 13 3 -3 4 -12 1 -19z m6 -159
c-6 -6 -7 3 -4 23 4 28 6 29 9 9 2 -13 0 -27 -5 -32z m-58 -118 c-3 -6 -11 -8
-17 -5 -6 4 -5 9 3 15 16 10 23 4 14 -10z m22 -16 c0 -8 -4 -15 -9 -15 -10 0
-11 14 -1 23 9 10 10 9 10 -8z m183 -50 c0 -8 -7 -15 -15 -15 -9 0 -12 6 -9
15 4 8 10 15 15 15 5 0 9 -7 9 -15z m-80 -5 c0 -5 -10 -15 -22 -21 l-23 -12
20 21 c23 24 25 25 25 12z"/>
<path d="M6235 1390 c3 -5 8 -10 11 -10 2 0 4 5 4 10 0 6 -5 10 -11 10 -5 0
-7 -4 -4 -10z"/>
<path d="M1796 1282 c-3 -5 1 -9 9 -9 8 0 12 4 9 9 -3 4 -7 8 -9 8 -2 0 -6 -4
-9 -8z"/>
<path d="M7800 891 c0 -5 5 -13 10 -16 6 -3 10 -2 10 4 0 5 -4 13 -10 16 -5 3
-10 2 -10 -4z"/>
<path d="M8520 570 c0 -5 4 -10 9 -10 6 0 13 5 16 10 3 6 -1 10 -9 10 -9 0
-16 -4 -16 -10z"/>
<path d="M8432 535 c3 -3 16 -8 28 -10 12 -2 20 -1 16 2 -4 4 -16 8 -28 10
-12 2 -19 1 -16 -2z"/>
</g>
</svg>
