<svg id="Layer_1" data-name="Layer 1" xmlns="http://www.w3.org/2000/svg" width="20" height="21" viewBox="0 0 20 21"><defs><style>.cls-1{isolation:isolate;}.cls-2{fill:#282f39;}</style></defs><g class="cls-1"><g class="cls-1"><path class="cls-2" d="M14.4141,9.18H15.82a5.2626,5.2626,0,0,1-1.4648,3.6914A5.8994,5.8994,0,0,1,10.82,14.7656V17.5H9.18V14.7656a5.8966,5.8966,0,0,1-3.5352-1.8945A5.2626,5.2626,0,0,1,4.18,9.18H5.5859A3.9111,3.9111,0,0,0,6.8945,12.207,4.4539,4.4539,0,0,0,10,13.3984a4.4572,4.4572,0,0,0,3.1055-1.1914A3.9144,3.9144,0,0,0,14.4141,9.18Zm-2.6563,1.7578a2.4527,2.4527,0,0,1-3.5156,0A2.3992,2.3992,0,0,1,7.5,9.18v-5a2.4023,2.4023,0,0,1,.7422-1.7578,2.4527,2.4527,0,0,1,3.5156,0A2.4058,2.4058,0,0,1,12.5,4.18v5A2.4027,2.4027,0,0,1,11.7578,10.9375Z"/></g></g></svg>