<svg id="Layer_1" data-name="Layer 1" xmlns="http://www.w3.org/2000/svg" width="20" height="21" viewBox="0 0 20 21"><defs><style>.cls-1{isolation:isolate;}.cls-2{fill:#282f39;}</style></defs><g class="cls-1"><g class="cls-1"><path class="cls-2" d="M10.82,13.4375V16.68h5V18.32H4.18V16.68h5V13.3984a5.6944,5.6944,0,0,1-3.4961-1.9726,5.6193,5.6193,0,0,1-1.3867-3.77A5.6428,5.6428,0,0,1,6.0156,3.5156a5.6435,5.6435,0,0,1,4.1406-1.7187,5.5814,5.5814,0,0,1,4.1211,1.7187,5.6779,5.6779,0,0,1,1.6993,4.1406,5.5774,5.5774,0,0,1-1.4844,3.8672A5.7676,5.7676,0,0,1,10.82,13.4375Z"/></g></g></svg>