<svg id="Layer_1"  xmlns="http://www.w3.org/2000/svg" width="18" height="19" viewBox="0 0 18 19"><defs><style>.cls-1{isolation:isolate;}.cls-2{fill:#282f39;}</style></defs><g class="cls-1"><g class="cls-1"><path class="cls-2" d="M3.709,3.709A7.2112,7.2112,0,0,1,9,1.5117,7.212,7.212,0,0,1,14.291,3.709,7.212,7.212,0,0,1,16.4883,9a7.212,7.212,0,0,1-2.1973,5.291A7.212,7.212,0,0,1,9,16.4883,7.2112,7.2112,0,0,1,3.709,14.291,7.212,7.212,0,0,1,1.5117,9,7.212,7.212,0,0,1,3.709,3.709Zm9.0527,7.998L10.0547,9l2.707-2.707L11.707,5.2383,9,7.9453,6.293,5.2383,5.2383,6.293,7.9453,9l-2.707,2.707L6.293,12.7617,9,10.0547l2.707,2.707Z"/></g></g></svg>