<svg xmlns="http://www.w3.org/2000/svg" width="238" height="238" viewBox="0 0 238 238">
    <defs>
        <style>.a,.b,.c,.d{fill:#fff;}.a{opacity:0.048;}.b{opacity:0.082;}.c{opacity:0.1;}</style>
    </defs>
    <g transform="translate(-69 -168)">
        <circle class="a" cx="119" cy="119" r="119" transform="translate(69 168)"/>
        <circle class="b" cx="82" cy="82" r="82" transform="translate(106 205)"/>
        <circle class="c" cx="46" cy="46" r="46" transform="translate(142 241)"/>
        <g transform="translate(164 263)">
            <path class="d" d="M24,46A22,22,0,1,1,46,24,22,22,0,0,1,24,46Zm0-4A18,18,0,1,0,6,24,18,18,0,0,0,24,42ZM18.451,17.077l14-4a2,2,0,0,1,2.472,2.472l-4,14a2,2,0,0,1-1.374,1.374l-14,4a2,2,0,0,1-2.472-2.472l4-14A2,2,0,0,1,18.451,17.077Zm-.539,13.011,9.47-2.706,2.706-9.47-9.47,2.706ZM24,26a2,2,0,1,1,2-2A2,2,0,0,1,24,26Z"/>
        </g>
    </g>
</svg>