<svg xmlns="http://www.w3.org/2000/svg"
    xmlns:xlink="http://www.w3.org/1999/xlink" width="207.052" height="206.027" viewBox="0 0 207.052 206.027">
    <defs>
        <style>.a{fill:url(#a);}.b{fill:url(#b);}.c{fill:url(#c);}.d{fill:url(#d);}.e{fill:#f4f7fa;}.f{clip-path:url(#f);}.g{mix-blend-mode:soft-light;}.aa,.g{isolation:isolate;}.h{fill:#fcfdfe;}.i{clip-path:url(#h);}.j{clip-path:url(#j);}.k{clip-path:url(#l);}.l{fill:url(#m);}.m{fill:url(#n);}.n{fill:url(#o);}.o{fill:url(#p);}.p{fill:url(#q);}.q{fill:url(#r);}.r{fill:url(#s);}.s{fill:url(#t);}.t{fill:url(#u);}.u{fill:url(#v);}.v{fill:#fff;}.w{fill:url(#w);}.x{fill:url(#x);}.y{fill:url(#y);}.z{fill:url(#z);}.aa{opacity:0.3;mix-blend-mode:multiply;fill:url(#aa);}.ab{fill:url(#ab);}.ac{fill:url(#ac);}.ad{fill:url(#ad);}</style>
        <linearGradient id="a" x1="0.427" y1="-0.015" x2="0.75" y2="2.075" gradientUnits="objectBoundingBox">
            <stop offset="0.004" stop-color="#e38ddd"/>
            <stop offset="1" stop-color="#0e5bd8"/>
        </linearGradient>
        <linearGradient id="b" x1="0.964" y1="0.169" x2="0.083" y2="0.815" gradientUnits="objectBoundingBox">
            <stop offset="0" stop-color="#ff9085"/>
            <stop offset="1" stop-color="#fb6fbb"/>
        </linearGradient>
        <linearGradient id="c" x1="1.033" y1="0.13" x2="0.623" y2="0.522" xlink:href="#b"/>
        <linearGradient id="d" x1="1.21" y1="0.022" x2="0.011" y2="1.005" gradientUnits="objectBoundingBox">
            <stop offset="0" stop-color="#ffc444"/>
            <stop offset="0.996" stop-color="#f36f56"/>
        </linearGradient>
        <clipPath id="f">
            <path class="a" d="M316.794,573.869a13.947,13.947,0,0,0,4.75-4.553c2.791-6.911,8.856-19.512,6.219-26.937-.45-1.268-6.564-.793-7.715-1.742-3.971-.643-5.389-.619-8.864-3.085-10.26-7.28,1.722-30.017-20.029-30.475-15.932-.335-26.808,8.276-31.816-14.853S224.361,433,205.01,455.759c-11.106,13.064,8.437,28.3,5.494,44.57-2.8,15.464,6.161,24.927,22.871,28.871s10.85,12.4,10.4,26.458c-.535,16.881,23.989,12.728,35.148,9.845C287.914,563.181,312.361,563.331,316.794,573.869Z" transform="translate(-201.563 -448.515)"/>
        </clipPath>
        <clipPath id="h">
            <path class="b" d="M420.574,378.529a14.607,14.607,0,0,0,6.537-2.176c5.743-5.286,17.138-14.485,17.976-22.694.143-1.4-5.854-3.7-6.518-5.112-3.469-2.391-4.82-3.005-7-6.9-6.439-11.493,15.1-27.626-5.269-37.823-14.923-7.469-29.078-4.2-23.434-28.335s-6.505-71.737-35.032-58.887c-16.372,7.375-4.72,30.56-14.809,44.635-9.587,13.375-5.361,26.349,8.678,37.582s4.7,16.607-2.033,29.7c-8.085,15.731,16.983,22.811,28.834,25.092C398.047,355.453,421.11,366.569,420.574,378.529Z" transform="translate(-347.852 -214.441)"/>
        </clipPath>
        <clipPath id="j">
            <path class="c" d="M677.33,716.235a9.755,9.755,0,0,1-3.323-3.185c-1.952-4.835-6.2-13.65-4.35-18.844.315-.887,4.592-.554,5.4-1.219,2.778-.45,3.77-.433,6.2-2.158,7.177-5.092-1.2-21,14.01-21.318,11.145-.234,18.753,5.789,22.257-10.39s24.468-41.431,38-25.508c7.769,9.139-5.9,19.795-3.843,31.178,1.956,10.817-4.31,17.437-16,20.2s-7.59,8.677-7.278,18.508c.374,11.809-16.781,8.9-24.587,6.887C697.533,708.759,680.431,708.864,677.33,716.235Z" transform="translate(-669.203 -628.546)"/>
        </clipPath>
        <clipPath id="l">
            <path class="d" d="M686.24,572.876a10.214,10.214,0,0,1-4.385-2c-3.6-4.1-10.844-11.35-10.816-17.122,0-.986,4.347-2.136,4.913-3.071,2.59-1.405,3.576-1.732,5.383-4.278,5.333-7.516-8.452-20.339,6.477-25.917,10.935-4.086,20.538-.763,18.407-17.967s9.858-49.415,28.745-38.356c10.84,6.347,1.011,21.607,6.983,32.148,5.674,10.016,1.77,18.726-8.831,25.5s-4.5,11.2-.794,20.812c4.454,11.543-13.508,14.6-21.922,15.31C703.624,558.5,686.756,564.517,686.24,572.876Z" transform="translate(-671.038 -461.906)"/>
        </clipPath>
        <linearGradient id="m" y1="0.5" x2="1" y2="0.5" gradientUnits="objectBoundingBox">
            <stop offset="0.494" stop-color="#ebeff2"/>
            <stop offset="1" stop-color="#fff"/>
        </linearGradient>
        <linearGradient id="n" x1="0.886" y1="1.223" x2="0.073" y2="-0.017" gradientUnits="objectBoundingBox">
            <stop offset="0" stop-color="#002060"/>
            <stop offset="1" stop-color="#03388c"/>
        </linearGradient>
        <linearGradient id="o" x1="0.507" y1="0.732" x2="0.152" y2="-0.233" xlink:href="#n"/>
        <linearGradient id="p" x1="0.394" y1="0.492" x2="0.072" y2="-0.086" xlink:href="#n"/>
        <linearGradient id="q" x1="0.49" y1="1.02" x2="0.555" y2="-0.407" xlink:href="#d"/>
        <linearGradient id="r" x1="0.689" y1="0.642" x2="-0.157" y2="-0.471" xlink:href="#d"/>
        <linearGradient id="s" x1="1.159" y1="0.264" x2="-0.013" y2="0.974" gradientUnits="objectBoundingBox">
            <stop offset="0" stop-color="#098caf"/>
            <stop offset="0.996" stop-color="#00b0f0"/>
        </linearGradient>
        <linearGradient id="t" x1="1.219" y1="-0.079" x2="-2.301" y2="2.973" xlink:href="#d"/>
        <linearGradient id="u" x1="1.142" y1="0.381" x2="-0.201" y2="0.535" xlink:href="#n"/>
        <linearGradient id="v" x1="0.005" y1="1.03" x2="-5.253" y2="8.332" xlink:href="#s"/>
        <linearGradient id="w" x1="0.984" y1="0.733" x2="0.376" y2="0.012" xlink:href="#n"/>
        <linearGradient id="x" x1="0.537" y1="0.511" x2="2.13" y2="0.332" xlink:href="#n"/>
        <linearGradient id="y" x1="0.787" y1="1.095" x2="0.488" y2="0.377" xlink:href="#n"/>
        <linearGradient id="z" x1="0.239" y1="0.594" x2="1.013" y2="0.292" xlink:href="#s"/>
        <linearGradient id="aa" x1="0.171" y1="0.623" x2="1.081" y2="0.281" xlink:href="#s"/>
        <linearGradient id="ab" x1="0.738" y1="-0.076" x2="-0.314" y2="1.767" xlink:href="#d"/>
        <linearGradient id="ac" x1="0.212" y1="-0.218" x2="0.984" y2="1.762" xlink:href="#d"/>
        <linearGradient id="ad" x1="0" y1="0.5" x2="1" y2="0.5" xlink:href="#n"/>
    </defs>
    <g transform="translate(-201.247 -205.945)">
        <path class="e" d="M358.4,218.328c6.948,9.947-1.2,26.074,9.112,33.555,10.036,7.282,22.365-4.654,31.824,1.614,14.031,9.3,11.469,51.849-9.045,78.286-6.169,7.951-11.324,11.044-13.607,20.036-4.9,19.307,12.327,30.793,9.048,40.342-7.383,21.5-120.921,39.543-166.477-25.075-21.277-30.179-24.46-73.758-5.45-106.857C248.154,200.419,342.808,196.009,358.4,218.328Z"/>
        <g transform="translate(201.327 267.276)">
            <g transform="translate(0)">
                <path class="a" d="M316.794,573.869a13.947,13.947,0,0,0,4.75-4.553c2.791-6.911,8.856-19.512,6.219-26.937-.45-1.268-6.564-.793-7.715-1.742-3.971-.643-5.389-.619-8.864-3.085-10.26-7.28,1.722-30.017-20.029-30.475-15.932-.335-26.808,8.276-31.816-14.853S224.361,433,205.01,455.759c-11.106,13.064,8.437,28.3,5.494,44.57-2.8,15.464,6.161,24.927,22.871,28.871s10.85,12.4,10.4,26.458c-.535,16.881,23.989,12.728,35.148,9.845C287.914,563.181,312.361,563.331,316.794,573.869Z" transform="translate(-201.563 -448.515)"/>
                <g class="f">
                    <g class="g" transform="translate(6.17 -4.073)">
                        <path class="h" d="M346.787,552.136l.061-.354c-54.618-9.433-97.72-50.249-115.3-109.182l-.345.1c8.331,27.93,22.982,52.719,42.369,71.688A138,138,0,0,0,346.787,552.136Z" transform="translate(-229.88 -440.022)"/>
                        <path class="h" d="M363.874,853.809c12.517-8.553,35.619-15.392,51.5-15.244l0-.36c-15.943-.149-39.138,6.718-51.706,15.306Z" transform="translate(-328.854 -735.603)"/>
                        <path class="h" d="M589.765,720.889l.157-.324c-7.426-3.6-12.745-10.824-15.809-21.46-2.246-7.8-3.251-17.217-2.985-28l-.36-.009c-.267,10.815.742,20.271,3,28.1C576.86,709.942,582.243,717.238,589.765,720.889Z" transform="translate(-483.558 -610.749)"/>
                        <path class="h" d="M267.013,698.5l.174-.315c-13.649-7.514-29.949-5.853-41.219-3.137l.084.35C237.26,692.7,253.465,691.045,267.013,698.5Z" transform="translate(-225.967 -626.935)"/>
                        <path class="h" d="M293.639,475.79l.338-.125c-6.1-16.459-.723-34.082,3.023-43.122l-.333-.138C292.9,441.493,287.5,459.215,293.639,475.79Z" transform="translate(-274.451 -432.405)"/>
                    </g>
                </g>
            </g>
        </g>
        <g transform="translate(238.314 208.093)">
            <g transform="translate(0 0)">
                <path class="b" d="M420.574,378.529a14.607,14.607,0,0,0,6.537-2.176c5.743-5.286,17.138-14.485,17.976-22.694.143-1.4-5.854-3.7-6.518-5.112-3.469-2.391-4.82-3.005-7-6.9-6.439-11.493,15.1-27.626-5.269-37.823-14.923-7.469-29.078-4.2-23.434-28.335s-6.505-71.737-35.032-58.887c-16.372,7.375-4.72,30.56-14.809,44.635-9.587,13.375-5.361,26.349,8.678,37.582s4.7,16.607-2.033,29.7c-8.085,15.731,16.983,22.811,28.834,25.092C398.047,355.453,421.11,366.569,420.574,378.529Z" transform="translate(-347.852 -214.441)"/>
                <g class="i">
                    <g class="g" transform="translate(-3.017 -4.193)">
                        <path class="h" d="M511.059,353.282l.217-.308c-47.44-33.443-69.9-91.409-60.074-155.057l-.373-.058c-4.656,30.165-1.922,60.2,7.9,86.844A144.518,144.518,0,0,0,511.059,353.282Z" transform="translate(-420.125 -197.859)"/>
                        <path class="h" d="M378.16,686.677c15.682-2.474,40.609,1.427,55.568,8.7l.165-.339c-15.017-7.3-40.044-11.213-55.791-8.729Z" transform="translate(-367.436 -562.25)"/>
                        <path class="h" d="M640.93,621.785l.294-.236c-5.408-6.744-7.2-15.963-5.324-27.4,1.375-8.387,4.653-17.749,9.744-27.827l-.337-.17c-5.108,10.112-8.4,19.511-9.779,27.936C633.634,605.635,635.451,614.954,640.93,621.785Z" transform="translate(-559.233 -473.033)"/>
                        <path class="h" d="M373.28,462.062l.306-.22c-9.541-13.236-25.707-18.982-37.59-21.471l-.077.369C347.736,443.215,363.81,448.924,373.28,462.062Z" transform="translate(-335.919 -379.054)"/>
                        <path class="h" d="M451.938,264.612l.375.033c1.619-18.309,14.615-32.57,22.218-39.441l-.253-.28C466.635,231.832,453.569,246.174,451.938,264.612Z" transform="translate(-422.604 -218.081)"/>
                    </g>
                </g>
            </g>
        </g>
        <g transform="translate(319.564 312.794)">
            <g transform="translate(0 0)">
                <path class="c" d="M677.33,716.235a9.755,9.755,0,0,1-3.323-3.185c-1.952-4.835-6.2-13.65-4.35-18.844.315-.887,4.592-.554,5.4-1.219,2.778-.45,3.77-.433,6.2-2.158,7.177-5.092-1.2-21,14.01-21.318,11.145-.234,18.753,5.789,22.257-10.39s24.468-41.431,38-25.508c7.769,9.139-5.9,19.795-3.843,31.178,1.956,10.817-4.31,17.437-16,20.2s-7.59,8.677-7.278,18.508c.374,11.809-16.781,8.9-24.587,6.887C697.533,708.759,680.431,708.864,677.33,716.235Z" transform="translate(-669.203 -628.546)"/>
                <g class="j">
                    <g class="g" transform="translate(2.596 -2.849)">
                        <path class="h" d="M679.511,701.033l-.043-.248c38.207-6.6,68.359-35.151,80.656-76.377l.241.072c-5.828,19.538-16.077,36.879-29.638,50.148A96.539,96.539,0,0,1,679.511,701.033Z" transform="translate(-679.468 -622.605)"/>
                        <path class="h" d="M799.732,912.063c-8.756-5.983-24.917-10.767-36.026-10.664l0-.252c11.152-.1,27.378,4.7,36.17,10.707Z" transform="translate(-742.406 -829.374)"/>
                        <path class="h" d="M708.918,819.081l-.11-.227c5.2-2.521,8.916-7.572,11.059-15.012a65.711,65.711,0,0,0,2.088-19.584l.252-.006a65.96,65.96,0,0,1-2.1,19.66C717.945,811.423,714.18,816.527,708.918,819.081Z" transform="translate(-701.39 -742.035)"/>
                        <path class="h" d="M889.167,803.422l-.121-.221c9.548-5.256,20.95-4.094,28.834-2.195l-.059.245C909.98,799.362,898.644,798.2,889.167,803.422Z" transform="translate(-836.057 -753.357)"/>
                        <path class="h" d="M943.052,647.626l-.236-.087c4.266-11.514.506-23.841-2.115-30.165l.233-.1C943.568,623.635,947.347,636.032,943.052,647.626Z" transform="translate(-874.652 -617.277)"/>
                    </g>
                </g>
            </g>
        </g>
        <g transform="translate(320.028 270.661)">
            <path class="d" d="M686.24,572.876a10.214,10.214,0,0,1-4.385-2c-3.6-4.1-10.844-11.35-10.816-17.122,0-.986,4.347-2.136,4.913-3.071,2.59-1.405,3.576-1.732,5.383-4.278,5.333-7.516-8.452-20.339,6.477-25.917,10.935-4.086,20.538-.763,18.407-17.967s9.858-49.415,28.745-38.356c10.84,6.347,1.011,21.607,6.983,32.148,5.674,10.016,1.77,18.726-8.831,25.5s-4.5,11.2-.794,20.812c4.454,11.543-13.508,14.6-21.922,15.31C703.624,558.5,686.756,564.517,686.24,572.876Z" transform="translate(-671.038 -461.906)"/>
            <g class="k">
                <g class="g" transform="translate(5.46 -2.733)">
                    <path class="h" d="M692.762,554.728l-.128-.23c35.484-19.735,55.415-58.385,53.314-103.387l.263-.012c1,21.328-3.138,42.013-11.955,59.819A101.1,101.1,0,0,1,692.762,554.728Z" transform="translate(-692.634 -451.098)"/>
                    <path class="h" d="M806.525,793.461c-10.724-2.886-28.353-2.026-39.3,1.918l-.089-.248c10.988-3.959,28.687-4.823,39.455-1.924Z" transform="translate(-748.301 -705.427)"/>
                    <path class="h" d="M719.963,730.013l-.187-.186c4.263-4.289,6.195-10.568,5.74-18.663a68.8,68.8,0,0,0-4.709-20.08l.247-.093a69.083,69.083,0,0,1,4.725,20.158C726.238,719.322,724.281,725.668,719.963,730.013Z" transform="translate(-712.913 -630.336)"/>
                    <path class="h" d="M861.235,641.1l-.2-.176c7.62-8.5,19.293-11.292,27.743-12.14l.026.262C880.4,629.893,868.8,632.669,861.235,641.1Z" transform="translate(-818.46 -583.861)"/>
                    <path class="h" d="M856.843,493.023l-.263,0c.235-12.856-7.745-23.741-12.522-29.086l.2-.176C849.057,469.131,857.08,480.078,856.843,493.023Z" transform="translate(-805.772 -460.556)"/>
                </g>
            </g>
        </g>
        <g transform="translate(243.286 225.688)">
            <g transform="translate(40.607 53.243)">
                <path class="l" d="M576.6,496.907l-13.793-2.295-8.248,4.94-13.9-4.565s-12.268,1.626-12.535,1.541L541.25,618.814a30.8,30.8,0,0,0,13.772,3.62,77.433,77.433,0,0,0,14.076-.718c3.925-9.073,15.468-37.027,21.875-66.028C598.775,520.372,576.6,496.907,576.6,496.907Z" transform="translate(-528.123 -494.612)"/>
            </g>
            <path class="m" d="M376.6,542.706s-5.6,2.765-8.483,27.148,5.3,35.776,8.794,43.733,19.95-10.093,27.02-17S387.967,542.249,376.6,542.706Z" transform="translate(-367.517 -477.301)"/>
            <path class="n" d="M759.478,516.476c.01-.37,3.6-6.332,3.6-6.332s9.743,4.409,18.395,25.7,9.663,41.975,6.377,48.512-25.018-6.42-29.323-15.491S759.478,516.476,759.478,516.476Z" transform="translate(-658.4 -452.974)"/>
            <g transform="translate(79.143 53.832)">
                <path class="o" d="M716.347,542.172c-2.993-13.2-10.274-41.892-10.274-41.892l-25.537-3.338s21.319,32.879,18.906,60.488c-2.056,23.524-15.034,56.954-18.829,66.329a74.2,74.2,0,0,0,8.285-1.4C693.409,611.065,719.113,554.368,716.347,542.172Z" transform="translate(-680.535 -496.942)"/>
            </g>
            <path class="p" d="M576.965,409.485s-1.846,19.1-2.416,22.3L590,437.75l7.837-5.205L593.35,412.01Z" transform="translate(-522.204 -377.766)"/>
            <g transform="translate(43.647)">
                <path class="q" d="M597.093,350.276a113.421,113.421,0,0,1,1.79,14.513c-.143,2.048,2.018,6.663,2.018,6.663s-6.871,3.982-10.522,3.287-9.276-8.47-10.287-11.441,5.319-9.861,5.319-9.861Z" transform="translate(-569.911 -333.527)"/>
                <path class="r" d="M551.323,320.92s2.939,9.966,3.745,10.306c6.49,2.74,15.1,4.528,17.721-.418,1.624-3.061.265-7.578-2.684-11.33-.479.487-4.088,4.047-8.905,3.426-4.929-.635-9.12-5.39-9.4-11.506a1.621,1.621,0,0,1,1.006-2.174c1.634-.605,9.711-4.84,11.583-4.714s4.24.927,5.331.906,3.876-1.791,3.59-5.394a3.935,3.935,0,0,0-3.285-3.919,7.618,7.618,0,0,0,4.452-3.982c1.306-2.989.485-6.94-1.517-7.9-1.593-.764-3.2.714-10.95,6-6.618,4.52-9.927,6.78-11.531,7.753-6.05,3.669-8.546,4.437-9.756,7.544a9.935,9.935,0,0,0-.043,6.469C542.736,318.8,550.778,320.794,551.323,320.92Z" transform="translate(-540.145 -284.031)"/>
                <path class="s" d="M575.16,413.527s-1-2.551-2.435-1.856,1.5,4.551,3.568,5.183Z" transform="translate(-564.201 -379.309)"/>
            </g>
            <path class="t" d="M696.353,525.241s2.139-10.406,2.173-10.785c.027-.295-12.076-14.886-17.472-21.047l-7.1-1.48s22.234,34.146,19.821,61.755c-1.483,16.967-7.9,39.086-13.2,53.617,22.362-45.578,25.133-73.338,25.133-73.338Z" transform="translate(-596.473 -439.365)"/>
            <path class="u" d="M617.673,512.6l-3.434-7.3s3.771-1.887,9.411-.325l-1.758,6.992a2.227,2.227,0,0,1-1.95,1.9h0A2.227,2.227,0,0,1,617.673,512.6Z" transform="translate(-551.858 -448.652)"/>
            <path class="v" d="M641.147,486.112l6.929,9.8,3.03-10.618-3.514-3.942Z" transform="translate(-571.963 -431.461)"/>
            <path class="v" d="M567.023,483.888l-2.2,3.513,10.276,10.974,4.32-9.86Z" transform="translate(-514.934 -433.357)"/>
            <g transform="translate(9.087 54.044)">
                <path class="w" d="M444.255,497.783c-20.519,1.066-40.8,11.361-40.8,11.361,17.222,16.28,31.786,79.5,37.287,106.122a27.046,27.046,0,0,0,11.573,7.786C458.644,571.91,444.255,497.783,444.255,497.783Z" transform="translate(-403.456 -497.783)"/>
            </g>
            <path class="x" d="M552.606,611.675s8.708-88.543-9.069-113.892l-7.2,20.455,9.1,11.377-6.57,11S554.167,568.368,552.606,611.675Z" transform="translate(-493.651 -443.739)"/>
            <path class="y" d="M389.844,624.42c-.173-.4-9.1-20.308-1.731-29.2s40.558-22.667,53.331-36.033c0,0,3.369.588,4.155,2.655,0,0-22.537,56.619-50.824,65.751C394.774,627.592,391.641,628.621,389.844,624.42Z" transform="translate(-380.731 -489.617)"/>
            <path class="z" d="M499.446,532.752c4.177,11.485,2.723,18.414.511,22.664-4.027,7.737-11.091,7.606-28.907,20.054-15.6,10.9-16.592,15.476-16.27,18.062.457,3.663,3.646,4.07,6.435,11.492,1.943,5.169,1.753,8.581,3.737,9.126,1.641.451,3.155-1.505,6.245-4.087a48.27,48.27,0,0,1,11.021-6.883,27.707,27.707,0,0,1,1.789-7.782c5.123-13.1,16.885-12.482,24.469-24.477,4.579-7.242,6.987-18.055,2.937-27.263a26.172,26.172,0,0,0-9.707-11.132Z" transform="translate(-432.682 -469.697)"/>
            <path class="aa" d="M537.1,572.218c-.224-.509-.466-.993-.716-1.467,1.127,9.087.556,19.271-5.641,26.375-8.261,9.47-20.032,6.03-29.835,13.653-5.773,4.489-11.088,12.992-11.8,30.206.357.929.793,1.523,1.526,1.725,1.642.451,3.155-1.505,6.245-4.087A48.263,48.263,0,0,1,507.9,631.74a27.706,27.706,0,0,1,1.789-7.782c5.123-13.1,16.885-12.482,24.469-24.477C538.739,592.24,541.148,581.426,537.1,572.218Z" transform="translate(-458.367 -498.258)"/>
            <path class="ab" d="M610.547,527.318s1.505-7.3,4.668-9.127,10.12-2.164,10.12-2.164-2.56,5.032-4.774,5.547-6.726,3-6.942,5.365S610.547,528.456,610.547,527.318Z" transform="translate(-549.1 -457.37)"/>
            <path class="ac" d="M663.491,625.468s-3.072-7.113-6.955-9.222-7.963-1.246-8.025-.638-.654,4.084,2.082,4.93a20.086,20.086,0,0,1,7.181,4.438,27.145,27.145,0,0,0,4.2,3.147Z" transform="translate(-577.393 -531.248)"/>
            <path class="ad" d="M699.279,650.09l-3.8,5.6c4.4,5.433,8.2,9.917,11.049,13.216,11.577,13.416,17.461,18.923,25.115,21.238,2.142.648,6.716,1.968,9.434-.367.4-.343,1.548-1.443,2.025-4.273,1.034-6.143-2.588-11.616-3.8-13.445C734.237,664.412,719.609,655.949,699.279,650.09Z" transform="translate(-612.557 -557.537)"/>
        </g>
    </g>
</svg>