<svg id="Layer_1"  xmlns="http://www.w3.org/2000/svg" width="20" height="21" viewBox="0 0 20 21"><defs><style>.cls-1{isolation:isolate;}.cls-2{fill:#282f39;}</style></defs><g class="cls-1"><g class="cls-1"><path class="cls-2" d="M11.1719,6.1719a1.6062,1.6062,0,0,1-2.3438,0,1.6062,1.6062,0,0,1,0-2.3438,1.6062,1.6062,0,0,1,2.3438,0,1.6062,1.6062,0,0,1,0,2.3438ZM8.8281,8.8281a1.6576,1.6576,0,1,1,2.3438,2.3438A1.6576,1.6576,0,1,1,8.8281,8.8281Zm0,5A1.6062,1.6062,0,1,1,8.32,15,1.61,1.61,0,0,1,8.8281,13.8281Z"/></g></g></svg>