<?xml version="1.0" encoding="iso-8859-1"?>
<!-- Generator: Adobe Illustrator 16.0.0, SVG Export Plug-In . SVG Version: 6.00 Build 0)  -->
<!DOCTYPE svg PUBLIC "-//W3C//DTD SVG 1.1//EN" "http://www.w3.org/Graphics/SVG/1.1/DTD/svg11.dtd">
<svg version="1.1" id="Capa_1" xmlns="http://www.w3.org/2000/svg" xmlns:xlink="http://www.w3.org/1999/xlink" x="0px" y="0px"
	 width="74.667px" height="74.667px" viewBox="0 0 74.667 74.667" style="enable-background:new 0 0 74.667 74.667;"
	 xml:space="preserve">
<g>
	<g>
		<path d="M62.935,62.648l0.002,0.006l-0.523,0.115c-0.283,0.045-0.514,0.111-0.726,0.213l-0.22,0.082
			c-3.477,1.763-7.143,2.668-10.848,2.668c-0.672,0-1.933-0.178-3.748-0.529c-1.812-0.311-3.784-0.66-5.895-1.041
			c-2.107-0.381-4.178-0.744-6.207-1.094c-2.048-0.353-3.632-0.522-4.841-0.522c-0.854,0-1.719,0.041-2.573,0.122l-3.646,0.348
			l2.492-2.684c0.25-0.268,0.486-0.535,0.713-0.8c1.117-1.306,2.043-2.685,2.752-4.103c0.708-1.418,1.227-2.98,1.541-4.648
			c0.314-1.672,0.475-3.557,0.475-5.602c0-0.933-0.109-1.859-0.326-2.755l-0.416-1.721l13.929-0.027
			c0.247-0.021,0.459-0.077,0.666-0.173C47.08,40,48.08,38.636,48.08,37.087c0-1.727-1.234-3.206-2.937-3.519
			c-0.124-0.027-0.236-0.042-0.349-0.045l-0.016,0.001c-0.043-0.001-0.077-0.002-0.104-0.004l-0.181,0.013H29.22l-0.306-0.979
			C27.311,27.411,26.5,23.067,26.5,19.64c0-1.676,0.313-3.291,0.931-4.8c0.617-1.504,1.477-2.847,2.557-3.99
			c1.073-1.138,2.399-2.046,3.941-2.698c1.537-0.649,3.281-0.979,5.181-0.979c7.731,0,11.821,3.674,12.503,11.232
			c0.012,0.041,0.021,0.084,0.029,0.127l0.027,0.342l-0.01,0.071c0.008,0.155,0.052,0.392,0.142,0.671
			c0.361,2.403,2.306,4.09,4.642,4.09c2.418,0,4.414-1.84,4.664-4.193h-0.002l0.028-0.645c0.001-0.01-0.009-0.088-0.013-0.175
			l-0.002-0.103c-0.272-3-0.998-5.703-2.15-8.013c-1.152-2.301-2.677-4.256-4.529-5.809c-1.858-1.56-4.094-2.757-6.64-3.558
			C45.248,0.407,42.403,0,39.347,0c-3.309,0-6.367,0.479-9.09,1.424C27.53,2.37,25.159,3.736,23.212,5.48
			c-1.953,1.749-3.493,3.927-4.577,6.474c-1.086,2.552-1.637,5.44-1.637,8.589c0,1.484,0.2,3.313,0.595,5.435
			c0.31,1.681,0.783,3.622,1.408,5.771l0.518,1.785l-7.941-0.017c-1.819,0.172-3.248,1.708-3.248,3.572
			c0,1.83,1.383,3.354,3.215,3.546l0.342,0.062l9.693,0.008l0.24,1.097c0.367,1.689,0.554,3.419,0.554,5.138
			c0,2.529-0.241,4.8-0.716,6.744c-0.473,1.939-1.162,3.682-2.05,5.174c-0.886,1.486-1.985,2.804-3.271,3.914
			c-1.279,1.107-2.764,2.103-4.408,2.955c-2.65,0.881-5.609,2.477-5.107,5.27c0.41,2.281,2.582,3.941,4.898,3.634
			c0.07-0.012,0.072-0.013,0.133-0.042c6.475-2.952,12.355-4.441,17.507-4.441c0.667,0,1.599,0.112,2.769,0.334
			c1.172,0.222,2.469,0.494,3.855,0.812c1.395,0.315,2.839,0.663,4.328,1.045c1.49,0.38,2.924,0.729,4.304,1.045
			c1.38,0.317,2.639,0.597,3.78,0.834c1.146,0.238,2.03,0.354,2.7,0.354H51.3c5.204,0,10.729-2.176,10.963-2.269
			c0.51-0.222,2.07-0.801,2.07-0.801c2.477-0.562,3.999-2.966,3.458-5.378C67.3,63.934,65.175,62.41,62.935,62.648z"/>
	</g>
</g>
<g>
</g>
<g>
</g>
<g>
</g>
<g>
</g>
<g>
</g>
<g>
</g>
<g>
</g>
<g>
</g>
<g>
</g>
<g>
</g>
<g>
</g>
<g>
</g>
<g>
</g>
<g>
</g>
<g>
</g>
</svg>
