<svg id="Layer_1"  xmlns="http://www.w3.org/2000/svg" width="20" height="21" viewBox="0 0 20 21"><defs><style>.cls-1{isolation:isolate;}.cls-2{fill:#282f39;}</style></defs><g class="cls-1"><g class="cls-1"><path class="cls-2" d="M18.6719,5.5078A1.6133,1.6133,0,0,1,19.18,6.68a1.5478,1.5478,0,0,1-.5078,1.1523A1.6394,1.6394,0,0,1,17.5,8.32a1.5539,1.5539,0,0,1-.43-.0391L14.1016,11.25a1.381,1.381,0,0,1,.0781.43,1.5478,1.5478,0,0,1-.5078,1.1523,1.65,1.65,0,0,1-2.3438,0A1.5445,1.5445,0,0,1,10.82,11.68a1.3525,1.3525,0,0,1,.0781-.43L8.75,9.1016a1.2211,1.2211,0,0,1-.8594,0l-3.789,3.789a1.3815,1.3815,0,0,1,.0781.43,1.61,1.61,0,0,1-.5078,1.1719,1.6062,1.6062,0,0,1-2.3438,0A1.6066,1.6066,0,0,1,.82,13.32a1.5473,1.5473,0,0,1,.5078-1.1523A1.64,1.64,0,0,1,2.5,11.68a1.6,1.6,0,0,1,.43.0391L6.7188,7.93A1.5539,1.5539,0,0,1,6.68,7.5,1.6394,1.6394,0,0,1,7.168,6.3281,1.5478,1.5478,0,0,1,8.32,5.82,1.7368,1.7368,0,0,1,10,7.5a1.595,1.595,0,0,1-.0391.43L12.07,10.0391A1.595,1.595,0,0,1,12.5,10a1.6,1.6,0,0,1,.43.0391l2.9687-2.93a1.3487,1.3487,0,0,1-.0781-.43,1.61,1.61,0,0,1,.5078-1.1719,1.6062,1.6062,0,0,1,2.3438,0Z"/></g></g></svg>